<svg xmlns="http://www.w3.org/2000/svg" xmlns:xlink="http://www.w3.org/1999/xlink" version="1.1" width="455.04" height="587.52" viewBox="0 0 455.04 587.52">
<path transform="matrix(.5454546,0,0,.5454546,-26.57699,-274.8979)" stroke-width="4.098622" stroke-linecap="round" stroke-linejoin="round" fill="none" stroke="#ff88d5" d="M198.9751 546.4493 223.006 546.4512"/>
<path transform="matrix(.5454546,0,0,.5454546,-26.57699,-274.8979)" stroke-width="4.098622" stroke-linecap="round" stroke-linejoin="round" fill="none" stroke="#ff88d5" d="M223.006 546.4512 223.0054 554.9392"/>
<path transform="matrix(.5454546,0,0,.5454546,-26.57699,-274.8979)" stroke-width="4.098622" stroke-linecap="round" stroke-linejoin="round" fill="none" stroke="#ff88d5" d="M198.9751 546.4493 198.9117 557.152"/>
<path transform="matrix(.5454546,0,0,.5454546,-26.57699,-274.8979)" stroke-width="4.098622" stroke-linecap="round" stroke-linejoin="round" fill="none" stroke="#ff88d5" d="M223.0054 554.9392 240.9178 554.9407"/>
<path transform="matrix(.5454546,0,0,.5454546,-26.57699,-274.8979)" stroke-width="4.098622" stroke-linecap="round" stroke-linejoin="round" fill="none" stroke="#ff88d5" d="M243.3006 554.9371C243.2544 554.4566 243.3836 554.0951 243.6884 553.8525"/>
<path transform="matrix(.5454546,0,0,.5454546,-26.57699,-274.8979)" stroke-width="4.098622" stroke-linecap="round" stroke-linejoin="round" fill="none" stroke="#ff88d5" d="M245.9747 550.2393 233.6061 569.8073"/>
<path transform="matrix(.5454546,0,0,.5454546,-26.57699,-274.8979)" stroke-width="4.098622" stroke-linecap="round" stroke-linejoin="round" fill="none" stroke="#ff88d5" d="M233.6061 569.8073 233.6039 597.4903"/>
<path transform="matrix(.5454546,0,0,.5454546,-26.57699,-274.8979)" stroke-width="4.098622" stroke-linecap="round" stroke-linejoin="round" fill="none" stroke="#ff88d5" d="M245.9747 550.2393C271.8958 563.8711 280.1446 581.3653 270.7212 602.7218"/>
<path transform="matrix(.5454546,0,0,.5454546,-26.57699,-274.8979)" stroke-width="4.098622" stroke-linecap="round" stroke-linejoin="round" fill="none" stroke="#ff88d5" d="M270.7212 602.7218 279.0375 622.7814"/>
<path transform="matrix(.5454546,0,0,.5454546,-26.57699,-274.8979)" stroke-width="4.098622" stroke-linecap="round" stroke-linejoin="round" fill="none" stroke="#ff88d5" d="M279.0375 622.7814 270.2405 623.675"/>
<path transform="matrix(.5454546,0,0,.5454546,-26.57699,-274.8979)" stroke-width="4.098622" stroke-linecap="round" stroke-linejoin="round" fill="none" stroke="#ff88d5" d="M270.2405 623.675 270.2397 633.7026"/>
<path transform="matrix(.5454546,0,0,.5454546,-26.57699,-274.8979)" stroke-width="4.098622" stroke-linecap="round" stroke-linejoin="round" fill="none" stroke="#ff88d5" d="M254.2071 627.9991C258.4505 631.495 263.7947 633.3961 270.2397 633.7026"/>
<path transform="matrix(.5454546,0,0,.5454546,-26.57699,-274.8979)" stroke-width="4.098622" stroke-linecap="round" stroke-linejoin="round" fill="none" stroke="#ff88d5" d="M270.2397 633.7026 264.4896 640.0302 265.2465 652.3785"/>
<path transform="matrix(.5454546,0,0,.5454546,-26.57699,-274.8979)" stroke-width="4.098622" stroke-linecap="round" stroke-linejoin="round" fill="none" stroke="#ff88d5" d="M250.5291 652.0591 265.2465 652.3785"/>
<path transform="matrix(.5454546,0,0,.5454546,-26.57699,-274.8979)" stroke-width="4.098622" stroke-linecap="round" stroke-linejoin="round" fill="none" stroke="#ff88d5" d="M228.125 640.8613 250.5291 652.0591"/>
<path transform="matrix(.5454546,0,0,.5454546,-26.57699,-274.8979)" stroke-width="4.098622" stroke-linecap="round" stroke-linejoin="round" fill="none" stroke="#ff88d5" d="M228.3846 621.1866 228.125 640.8613"/>
<path transform="matrix(.5454546,0,0,.5454546,-26.57699,-274.8979)" stroke-width="4.098622" stroke-linecap="round" stroke-linejoin="round" fill="none" stroke="#ff88d5" d="M228.3846 621.1866 239.5875 615.9334"/>
<path transform="matrix(.5454546,0,0,.5454546,-26.57699,-274.8979)" stroke-width="4.098622" stroke-linecap="round" stroke-linejoin="round" fill="none" stroke="#ff88d5" d="M240.4749 607.2484 239.5875 615.9334"/>
<path transform="matrix(.5454546,0,0,.5454546,-26.57699,-274.8979)" stroke-width="4.098622" stroke-linecap="round" stroke-linejoin="round" fill="none" stroke="#ff88d5" d="M233.6039 597.4903 240.4749 607.2484"/>
<path transform="matrix(.5454546,0,0,.5454546,-26.57699,-274.8979)" stroke-width="4.098622" stroke-linecap="round" stroke-linejoin="round" fill="none" stroke="#ff88d5" d="M262.1747 594.3945 262.1741 601.8652"/>
<path transform="matrix(.5454546,0,0,.5454546,-26.57699,-274.8979)" stroke-width="4.098622" stroke-linecap="round" stroke-linejoin="round" fill="none" stroke="#ff88d5" d="M262.1741 601.8652 254.5044 601.8646"/>
<path transform="matrix(.5454546,0,0,.5454546,-26.57699,-274.8979)" stroke-width="4.098622" stroke-linecap="round" stroke-linejoin="round" fill="none" stroke="#ff88d5" d="M243.3509 568.585 243.3503 575.8005"/>
<path transform="matrix(.5454546,0,0,.5454546,-26.57699,-274.8979)" stroke-width="4.098622" stroke-linecap="round" stroke-linejoin="round" fill="none" stroke="#ff88d5" d="M243.1473 582.1766 243.1471 585.4656"/>
<path transform="matrix(.5454546,0,0,.5454546,-26.57699,-274.8979)" stroke-width="4.098622" stroke-linecap="round" stroke-linejoin="round" fill="none" stroke="#ff88d5" d="M243.3984 591.9469 243.3981 595.1741"/>
<path transform="matrix(.5454546,0,0,.5454546,-26.57699,-274.8979)" stroke-width="4.098622" stroke-linecap="round" stroke-linejoin="round" fill="none" stroke="#ff88d5" d="M192.6205 557.8736 204.1878 557.8745"/>
<path transform="matrix(.5454546,0,0,.5454546,-26.57699,-274.8979)" stroke-width="4.098622" stroke-linecap="round" stroke-linejoin="round" fill="none" stroke="#ff88d5" d="M204.1878 557.8745 204.187 568.77"/>
<path transform="matrix(.5454546,0,0,.5454546,-26.57699,-274.8979)" stroke-width="4.098622" stroke-linecap="round" stroke-linejoin="round" fill="none" stroke="#ff88d5" d="M192.6205 557.8736 192.6197 568.7798"/>
<path transform="matrix(.5454546,0,0,.5454546,-26.57699,-274.8979)" stroke-width="4.098622" stroke-linecap="round" stroke-linejoin="round" fill="none" stroke="#ff88d5" d="M204.187 568.77 207.5862 571.2446"/>
<path transform="matrix(.5454546,0,0,.5454546,-26.57699,-274.8979)" stroke-width="4.098622" stroke-linecap="round" stroke-linejoin="round" fill="none" stroke="#ff88d5" d="M207.5862 571.2446 218.3758 566.6714"/>
<path transform="matrix(.5454546,0,0,.5454546,-26.57699,-274.8979)" stroke-width="4.098622" stroke-linecap="round" stroke-linejoin="round" fill="none" stroke="#ff88d5" d="M218.3758 566.6714 223.7749 575.3907"/>
<path transform="matrix(.5454546,0,0,.5454546,-26.57699,-274.8979)" stroke-width="4.098622" stroke-linecap="round" stroke-linejoin="round" fill="none" stroke="#ff88d5" d="M223.7749 575.3907 215.6234 581.9349"/>
<path transform="matrix(.5454546,0,0,.5454546,-26.57699,-274.8979)" stroke-width="4.098622" stroke-linecap="round" stroke-linejoin="round" fill="none" stroke="#ff88d5" d="M215.6234 581.9349 215.623 586.9243"/>
<path transform="matrix(.5454546,0,0,.5454546,-26.57699,-274.8979)" stroke-width="4.098622" stroke-linecap="round" stroke-linejoin="round" fill="none" stroke="#ff88d5" d="M215.623 586.9243 223.8843 593.6035"/>
<path transform="matrix(.5454546,0,0,.5454546,-26.57699,-274.8979)" stroke-width="4.098622" stroke-linecap="round" stroke-linejoin="round" fill="none" stroke="#ff88d5" d="M223.8843 593.6035 219.0127 601.784"/>
<path transform="matrix(.5454546,0,0,.5454546,-26.57699,-274.8979)" stroke-width="4.098622" stroke-linecap="round" stroke-linejoin="round" fill="none" stroke="#ff88d5" d="M219.0127 601.784 208.9971 597.9196"/>
<path transform="matrix(.5454546,0,0,.5454546,-26.57699,-274.8979)" stroke-width="4.098622" stroke-linecap="round" stroke-linejoin="round" fill="none" stroke="#ff88d5" d="M208.9971 597.9196 204.8085 600.3083"/>
<path transform="matrix(.5454546,0,0,.5454546,-26.57699,-274.8979)" stroke-width="4.098622" stroke-linecap="round" stroke-linejoin="round" fill="none" stroke="#ff88d5" d="M204.8085 600.3083 204.1686 611.5723"/>
<path transform="matrix(.5454546,0,0,.5454546,-26.57699,-274.8979)" stroke-width="4.098622" stroke-linecap="round" stroke-linejoin="round" fill="none" stroke="#ff88d5" d="M204.1686 611.5723 193.5191 611.5714"/>
<path transform="matrix(.5454546,0,0,.5454546,-26.57699,-274.8979)" stroke-width="4.098622" stroke-linecap="round" stroke-linejoin="round" fill="none" stroke="#ff88d5" d="M193.5191 611.5714 192.9441 600.8787"/>
<path transform="matrix(.5454546,0,0,.5454546,-26.57699,-274.8979)" stroke-width="4.098622" stroke-linecap="round" stroke-linejoin="round" fill="none" stroke="#ff88d5" d="M192.9441 600.8787 188.9989 597.9016"/>
<path transform="matrix(.5454546,0,0,.5454546,-26.57699,-274.8979)" stroke-width="4.098622" stroke-linecap="round" stroke-linejoin="round" fill="none" stroke="#ff88d5" d="M188.9989 597.9016 179.0202 602.7447"/>
<path transform="matrix(.5454546,0,0,.5454546,-26.57699,-274.8979)" stroke-width="4.098622" stroke-linecap="round" stroke-linejoin="round" fill="none" stroke="#ff88d5" d="M177.8815 602.1545 173.0964 594.8223"/>
<path transform="matrix(.5454546,0,0,.5454546,-26.57699,-274.8979)" stroke-width="4.098622" stroke-linecap="round" stroke-linejoin="round" fill="none" stroke="#ff88d5" d="M173.0964 594.8223 181.4552 587.9468"/>
<path transform="matrix(.5454546,0,0,.5454546,-26.57699,-274.8979)" stroke-width="4.098622" stroke-linecap="round" stroke-linejoin="round" fill="none" stroke="#ff88d5" d="M181.4552 587.9468 181.8796 582.8369"/>
<path transform="matrix(.5454546,0,0,.5454546,-26.57699,-274.8979)" stroke-width="4.098622" stroke-linecap="round" stroke-linejoin="round" fill="none" stroke="#ff88d5" d="M181.3227 581.4505 172.8163 575.7848"/>
<path transform="matrix(.5454546,0,0,.5454546,-26.57699,-274.8979)" stroke-width="4.098622" stroke-linecap="round" stroke-linejoin="round" fill="none" stroke="#ff88d5" d="M172.8163 575.7848 177.5934 566.8771"/>
<path transform="matrix(.5454546,0,0,.5454546,-26.57699,-274.8979)" stroke-width="4.098622" stroke-linecap="round" stroke-linejoin="round" fill="none" stroke="#ff88d5" d="M178.6317 565.9632 188.1701 571.4887"/>
<path transform="matrix(.5454546,0,0,.5454546,-26.57699,-274.8979)" stroke-width="4.098622" stroke-linecap="round" stroke-linejoin="round" fill="none" stroke="#ff88d5" d="M188.1701 571.4887 192.6197 568.7798"/>
<path transform="matrix(.5454546,0,0,.5454546,-26.57699,-274.8979)" stroke-width="4.098622" stroke-linecap="round" stroke-linejoin="round" fill="none" stroke="#ff88d5" d="M203.9857 579.3401C207.2575 582.4512 207.3877 587.6255 204.2766 590.8973 201.1655 594.169 195.9912 594.2993 192.7195 591.1882 189.4477 588.0771 189.3175 582.9028 192.4286 579.631 195.5397 576.3593 200.714 576.229 203.9857 579.3401Z"/>
<path transform="matrix(.5454546,0,0,.5454546,-26.57699,-274.8979)" stroke-width="4.098622" stroke-linecap="round" stroke-linejoin="round" fill="none" stroke="#ff88d5" d="M222.8185 569.697 231.7833 569.6978"/>
<path transform="matrix(.5454546,0,0,.5454546,-26.57699,-274.8979)" stroke-width="4.098622" stroke-linecap="round" stroke-linejoin="round" fill="none" stroke="#ff88d5" d="M218.1789 584.5052 232.6006 584.5063"/>
<path transform="matrix(.5454546,0,0,.5454546,-26.57699,-274.8979)" stroke-width="4.098622" stroke-linecap="round" stroke-linejoin="round" fill="none" stroke="#ff88d5" d="M222.5099 598.6626 234.3898 598.6635"/>
<path transform="matrix(.5454546,0,0,.5454546,-26.57699,-274.8979)" stroke-width="4.098622" stroke-linecap="round" stroke-linejoin="round" fill="none" stroke="#ff88d5" d="M239.2452 613.6142 230.7625 613.6135"/>
<path transform="matrix(.5454546,0,0,.5454546,-26.57699,-274.8979)" stroke-width="4.098622" stroke-linecap="round" stroke-linejoin="round" fill="none" stroke="#ff88d5" d="M223.0857 613.6335 221.1079 613.6334"/>
<path transform="matrix(.5454546,0,0,.5454546,-26.57699,-274.8979)" stroke-width="4.098622" stroke-linecap="round" stroke-linejoin="round" fill="none" stroke="#ff88d5" d="M213.8176 613.7939 211.2584 613.7937"/>
<path transform="matrix(.5454546,0,0,.5454546,-26.57699,-274.8979)" stroke-width="4.098622" stroke-linecap="round" stroke-linejoin="round" fill="none" stroke="#ff88d5" d="M232.7799 645.3392 226.5732 653.9579"/>
<path transform="matrix(.5454546,0,0,.5454546,-26.57699,-274.8979)" stroke-width="4.098622" stroke-linecap="round" stroke-linejoin="round" fill="none" stroke="#ff88d5" d="M226.5732 653.9579 226.572 669.5614"/>
<path transform="matrix(.5454546,0,0,.5454546,-26.57699,-274.8979)" stroke-width="4.098622" stroke-linecap="round" stroke-linejoin="round" fill="none" stroke="#ff88d5" d="M226.572 669.5614 244.1223 687.1146"/>
<path transform="matrix(.5454546,0,0,.5454546,-26.57699,-274.8979)" stroke-width="4.098622" stroke-linecap="round" stroke-linejoin="round" fill="none" stroke="#ff88d5" d="M197.2833 613.4563 197.2822 628.0262"/>
<path transform="matrix(.5454546,0,0,.5454546,-26.57699,-274.8979)" stroke-width="4.098622" stroke-linecap="round" stroke-linejoin="round" fill="none" stroke="#ff88d5" d="M226.7472 628.6176 187.5617 628.6144"/>
<path transform="matrix(.5454546,0,0,.5454546,-26.57699,-274.8979)" stroke-width="4.098622" stroke-linecap="round" stroke-linejoin="round" fill="none" stroke="#ff88d5" d="M187.5617 628.6144 187.5589 663.7415"/>
<path transform="matrix(.5454546,0,0,.5454546,-26.57699,-274.8979)" stroke-width="4.098622" stroke-linecap="round" stroke-linejoin="round" fill="none" stroke="#ff88d5" d="M187.5589 663.7415 165.5089 685.788"/>
<path transform="matrix(.5454546,0,0,.5454546,-26.57699,-274.8979)" stroke-width="4.098622" stroke-linecap="round" stroke-linejoin="round" fill="none" stroke="#ff88d5" d="M165.5089 685.788 244.1223 687.1146"/>
<path transform="matrix(.5454546,0,0,.5454546,-26.57699,-274.8979)" stroke-width="4.098622" stroke-linecap="round" stroke-linejoin="round" fill="none" stroke="#ff88d5" d="M216.8597 629.496 216.8585 644.0472"/>
<path transform="matrix(.5454546,0,0,.5454546,-26.57699,-274.8979)" stroke-width="4.098622" stroke-linecap="round" stroke-linejoin="round" fill="none" stroke="#ff88d5" d="M216.8585 644.0472 226.5732 653.9579"/>
<path transform="matrix(.5454546,0,0,.5454546,-26.57699,-274.8979)" stroke-width="4.098622" stroke-linecap="round" stroke-linejoin="round" fill="none" stroke="#ff88d5" d="M207.8422 631.1473 207.8394 666.3965"/>
<path transform="matrix(.5454546,0,0,.5454546,-26.57699,-274.8979)" stroke-width="4.098622" stroke-linecap="round" stroke-linejoin="round" fill="none" stroke="#ff88d5" d="M207.8394 666.3965 188.4352 685.7976"/>
<path transform="matrix(.5454546,0,0,.5454546,-26.57699,-274.8979)" stroke-width="4.098622" stroke-linecap="round" stroke-linejoin="round" fill="none" stroke="#ff88d5" d="M209.4688 659.1635 225.6494 659.1647"/>
<path transform="matrix(.5454546,0,0,.5454546,-26.57699,-274.8979)" stroke-width="4.098622" stroke-linecap="round" stroke-linejoin="round" fill="none" stroke="#ff88d5" d="M216.9739 660.6733 216.9718 686.5071"/>
<path transform="matrix(.5454546,0,0,.5454546,-26.57699,-274.8979)" stroke-width="4.098622" stroke-linecap="round" stroke-linejoin="round" fill="none" stroke="#ff88d5" d="M196.7943 660.877 196.7931 676.1243"/>
<path transform="matrix(.5454546,0,0,.5454546,-26.57699,-274.8979)" stroke-width="4.098622" stroke-linecap="round" stroke-linejoin="round" fill="none" stroke="#ff88d5" d="M197.1946 650.2366C197.1303 652.6895 197.1134 653.6219 197.1438 653.0338"/>
<path transform="matrix(.5454546,0,0,.5454546,-26.57699,-274.8979)" stroke-width="4.098622" stroke-linecap="round" stroke-linejoin="round" fill="none" stroke="#ff88d5" d="M197.0283 641.3309 197.0281 643.8776"/>
<path transform="matrix(.5454546,0,0,.5454546,-26.57699,-274.8979)" stroke-width="4.098622" stroke-linecap="round" stroke-linejoin="round" fill="none" stroke="#ff88d5" d="M177.8336 603.7277 177.8326 616.1978"/>
<path transform="matrix(.5454546,0,0,.5454546,-26.57699,-274.8979)" stroke-width="4.098622" stroke-linecap="round" stroke-linejoin="round" fill="none" stroke="#ff88d5" d="M177.8326 616.1978 162.8817 616.1966"/>
<path transform="matrix(.5454546,0,0,.5454546,-26.57699,-274.8979)" stroke-width="4.098622" stroke-linecap="round" stroke-linejoin="round" fill="none" stroke="#ff88d5" d="M160.5232 613.6425C161.82 616.1992 160.7987 619.3232 158.2419 620.62 155.6852 621.9168 152.5613 620.8954 151.2645 618.3387 149.9677 615.782 150.989 612.658 153.5457 611.3612 156.1025 610.0644 159.2264 611.0858 160.5232 613.6425Z"/>
<path transform="matrix(.5454546,0,0,.5454546,-26.57699,-274.8979)" stroke-width="4.098622" stroke-linecap="round" stroke-linejoin="round" fill="none" stroke="#ff88d5" d="M179.3675 586.3376 155.1393 586.3358"/>
<path transform="matrix(.5454546,0,0,.5454546,-26.57699,-274.8979)" stroke-width="4.098622" stroke-linecap="round" stroke-linejoin="round" fill="none" stroke="#ff88d5" d="M151.915 591.2044C149.8568 593.1434 146.6164 593.0468 144.6773 590.9886 142.7382 588.9304 142.8348 585.69 144.893 583.751 146.9512 581.8119 150.1917 581.9085 152.1307 583.9667 154.0698 586.0249 153.9732 589.2653 151.915 591.2044Z"/>
<path transform="matrix(.5454546,0,0,.5454546,-26.57699,-274.8979)" stroke-width="4.098622" stroke-linecap="round" stroke-linejoin="round" fill="none" stroke="#ff88d5" d="M171.9067 572.7279 156.4495 572.7266"/>
<path transform="matrix(.5454546,0,0,.5454546,-26.57699,-274.8979)" stroke-width="4.098622" stroke-linecap="round" stroke-linejoin="round" fill="none" stroke="#ff88d5" d="M156.4495 572.7266 156.4505 560.6531"/>
<path transform="matrix(.5454546,0,0,.5454546,-26.57699,-274.8979)" stroke-width="4.098622" stroke-linecap="round" stroke-linejoin="round" fill="none" stroke="#ff88d5" d="M158.85 558.9203C156.7865 560.5609 153.7836 560.2181 152.143 558.1546 150.5023 556.091 150.8451 553.0882 152.9087 551.4475 154.9722 549.8069 157.9751 550.1497 159.6157 552.2132 161.2564 554.2768 160.9136 557.2796 158.85 558.9203Z"/>
<path transform="matrix(1,0,0,-1,0,587.52)" d="M22.90909 558.0655H432V34.42909H22.90909V558.0655Z" fill-opacity="0"/>
<path transform="matrix(.5454546,0,0,.5454546,0,0)" stroke-width="10" stroke-linecap="butt" stroke-miterlimit="10" stroke-linejoin="miter" fill="none" stroke="#000000" stroke-opacity="0" d="M37 49H797V1019H37V49Z"/>
<text fill-opacity="0" xml:space="preserve" transform="matrix(1.118051 0 -0 .5454546 104.9768 28.341492)" font-size="4.343383" font-family=".SFUI"><tspan y="0" x="0">-</tspan></text>
</svg>
