<svg xmlns="http://www.w3.org/2000/svg" xmlns:xlink="http://www.w3.org/1999/xlink" version="1.1" width="455.04" height="587.52" viewBox="0 0 455.04 587.52">
<path transform="matrix(.5454546,0,0,.5454546,0,0)" stroke-width="2.311093" stroke-linecap="round" stroke-linejoin="round" fill="none" stroke="#239cff" d="M171.7859 97.37079 171.7942 110.0162"/>
<path transform="matrix(.5454546,0,0,.5454546,0,0)" stroke-width="2.311093" stroke-linecap="round" stroke-linejoin="round" fill="none" stroke="#239cff" d="M171.7859 97.37079 186.7179 97.36096"/>
<path transform="matrix(.5454546,0,0,.5454546,0,0)" stroke-width="2.311093" stroke-linecap="round" stroke-linejoin="round" fill="none" stroke="#239cff" d="M171.2359 84.70642 186.7451 84.69623"/>
<path transform="matrix(.5454546,0,0,.5454546,0,0)" stroke-width="2.311093" stroke-linecap="round" stroke-linejoin="round" fill="none" stroke="#239cff" d="M192.8613 93.85751C197.7206 90.0299 202.3532 90.41974 206.759 95.02704"/>
<path transform="matrix(.5454546,0,0,.5454546,0,0)" stroke-width="2.311093" stroke-linecap="round" stroke-linejoin="round" fill="none" stroke="#239cff" d="M206.759 95.02704 206.7692 110.5341"/>
<path transform="matrix(.5454546,0,0,.5454546,0,0)" stroke-width="2.311093" stroke-linecap="round" stroke-linejoin="round" fill="none" stroke="#239cff" d="M206.9194 100.2498C196.1532 97.61753 191.2055 99.83542 192.0761 106.9035"/>
<path transform="matrix(.5454546,0,0,.5454546,0,0)" stroke-width="2.311093" stroke-linecap="round" stroke-linejoin="round" fill="none" stroke="#239cff" d="M192.5347 107.1029C197.3691 110.7497 201.9452 110.2531 206.2632 105.6131"/>
<path transform="matrix(.5454546,0,0,.5454546,0,0)" stroke-width="2.311093" stroke-linecap="round" stroke-linejoin="round" fill="none" stroke="#239cff" d="M229.9907 94.40186C227.3331 90.62996 223.6066 89.98608 218.8111 92.47021"/>
<path transform="matrix(.5454546,0,0,.5454546,0,0)" stroke-width="2.311093" stroke-linecap="round" stroke-linejoin="round" fill="none" stroke="#239cff" d="M218.8111 92.47021C214.6212 95.4082 213.3904 99.73492 215.1187 105.4504"/>
<path transform="matrix(.5454546,0,0,.5454546,0,0)" stroke-width="2.311093" stroke-linecap="round" stroke-linejoin="round" fill="none" stroke="#239cff" d="M215.1187 105.4504C219.3659 109.8769 224.2644 110.3669 229.8139 106.9204"/>
<path transform="matrix(.5454546,0,0,.5454546,0,0)" stroke-width="2.311093" stroke-linecap="round" stroke-linejoin="round" fill="none" stroke="#239cff" d="M238.2066 84.25909 253.7533 84.24887"/>
<path transform="matrix(.5454546,0,0,.5454546,0,0)" stroke-width="2.311093" stroke-linecap="round" stroke-linejoin="round" fill="none" stroke="#239cff" d="M238.0175 96.18808 253.832 96.17767"/>
<path transform="matrix(.5454546,0,0,.5454546,0,0)" stroke-width="2.311093" stroke-linecap="round" stroke-linejoin="round" fill="none" stroke="#239cff" d="M238.1249 109.6757 253.8539 109.6653"/>
<path transform="matrix(.5454546,0,0,.5454546,0,0)" stroke-width="2.311093" stroke-linecap="round" stroke-linejoin="round" fill="none" stroke="#ff88d5" d="M263.2482 91.46466 263.2603 109.8339"/>
<path transform="matrix(.5454546,0,0,.5454546,0,0)" stroke-width="2.311093" stroke-linecap="round" stroke-linejoin="round" fill="none" stroke="#ff88d5" d="M263.5663 96.28912C268.6274 88.8585 273.5008 88.63034 278.1863 95.60464"/>
<path transform="matrix(.5454546,0,0,.5454546,0,0)" stroke-width="2.311093" stroke-linecap="round" stroke-linejoin="round" fill="none" stroke="#ff88d5" d="M278.1863 95.60464 278.196 110.2423"/>
<path transform="matrix(.5454546,0,0,.5454546,0,0)" stroke-width="2.311093" stroke-linecap="round" stroke-linejoin="round" fill="none" stroke="#ff88d5" d="M278.1863 95.60464C283.4304 89.72505 288.5173 89.16085 293.4471 93.91205"/>
<path transform="matrix(.5454546,0,0,.5454546,0,0)" stroke-width="2.311093" stroke-linecap="round" stroke-linejoin="round" fill="none" stroke="#ff88d5" d="M293.4471 93.91205 293.4579 110.3467"/>
<path transform="matrix(.5454546,0,0,.5454546,0,0)" stroke-width="2.311093" stroke-linecap="round" stroke-linejoin="round" fill="none" stroke="#ff88d5" d="M302.5818 96.01385 302.5868 103.6466"/>
<path transform="matrix(.5454546,0,0,.5454546,0,0)" stroke-width="2.311093" stroke-linecap="round" stroke-linejoin="round" fill="none" stroke="#ff88d5" d="M302.5868 103.6466C304.7112 107.9096 307.6009 109.9102 311.2557 109.6485"/>
<path transform="matrix(.5454546,0,0,.5454546,0,0)" stroke-width="2.311093" stroke-linecap="round" stroke-linejoin="round" fill="none" stroke="#ff88d5" d="M311.2557 109.6485C315.4011 109.012 318.1749 107.2299 319.5771 104.3023"/>
<path transform="matrix(.5454546,0,0,.5454546,0,0)" stroke-width="2.311093" stroke-linecap="round" stroke-linejoin="round" fill="none" stroke="#ff88d5" d="M319.5771 104.3023 319.5717 96.19226"/>
<path transform="matrix(.5454546,0,0,.5454546,0,0)" stroke-width="2.311093" stroke-linecap="round" stroke-linejoin="round" fill="none" stroke="#ff88d5" d="M319.5717 96.19226C317.2658 92.59648 314.2806 90.89852 310.616 91.09839"/>
<path transform="matrix(.5454546,0,0,.5454546,0,0)" stroke-width="2.311093" stroke-linecap="round" stroke-linejoin="round" fill="none" stroke="#ff88d5" d="M310.616 91.09839C306.8437 91.71102 304.1656 93.34951 302.5818 96.01385"/>
<path transform="matrix(.5454546,0,0,.5454546,0,0)" stroke-width="2.311093" stroke-linecap="round" stroke-linejoin="round" fill="none" stroke="#ff88d5" d="M328.1286 87.10501 327.9561 106.5269"/>
<path transform="matrix(.5454546,0,0,.5454546,0,0)" stroke-width="2.311093" stroke-linecap="round" stroke-linejoin="round" fill="none" stroke="#ff88d5" d="M327.9561 106.5269C330.0842 109.7888 332.7074 110.4433 335.8258 108.4906"/>
<path transform="matrix(.5454546,0,0,.5454546,0,0)" stroke-width="2.311093" stroke-linecap="round" stroke-linejoin="round" fill="none" stroke="#ff88d5" d="M324.7917 90.44629 335.5764 90.43921"/>
<path transform="matrix(.5454546,0,0,.5454546,0,0)" stroke-width="2.311093" stroke-linecap="round" stroke-linejoin="round" fill="none" stroke="#ff88d5" d="M343.2884 92.22504 343.2998 109.5896"/>
<path transform="matrix(.5454546,0,0,.5454546,0,0)" stroke-width="2.311093" stroke-linecap="round" stroke-linejoin="round" fill="none" stroke="#ff88d5" d="M342.4258 82.65273 344.3664 82.65146 344.3677 84.59208 342.4271 84.59335 342.4258 82.65273"/>
<path transform="matrix(.5454546,0,0,.5454546,0,0)" stroke-width="2.311093" stroke-linecap="round" stroke-linejoin="round" fill="none" stroke="#ff88d5" d="M351.3833 96.68115 351.3886 104.7365"/>
<path transform="matrix(.5454546,0,0,.5454546,0,0)" stroke-width="2.311093" stroke-linecap="round" stroke-linejoin="round" fill="none" stroke="#ff88d5" d="M351.3886 104.7365C353.0366 107.6756 355.7511 109.2453 359.5321 109.4459"/>
<path transform="matrix(.5454546,0,0,.5454546,0,0)" stroke-width="2.311093" stroke-linecap="round" stroke-linejoin="round" fill="none" stroke="#ff88d5" d="M359.5321 109.4459C364.6554 108.6817 367.598 107.109 368.3598 104.7277"/>
<path transform="matrix(.5454546,0,0,.5454546,0,0)" stroke-width="2.311093" stroke-linecap="round" stroke-linejoin="round" fill="none" stroke="#ff88d5" d="M368.3598 104.7277 368.3545 96.64551"/>
<path transform="matrix(.5454546,0,0,.5454546,0,0)" stroke-width="2.311093" stroke-linecap="round" stroke-linejoin="round" fill="none" stroke="#ff88d5" d="M351.3833 96.68115C353.12 93.62142 355.7326 91.72176 359.221 90.98218"/>
<path transform="matrix(.5454546,0,0,.5454546,0,0)" stroke-width="2.311093" stroke-linecap="round" stroke-linejoin="round" fill="none" stroke="#ff88d5" d="M359.4062 90.8894C363.4597 90.98916 366.4425 92.90786 368.3545 96.64551"/>
<path transform="matrix(.5454546,0,0,.5454546,0,0)" stroke-width="2.311093" stroke-linecap="round" stroke-linejoin="round" fill="none" stroke="#ff88d5" d="M376.4309 91.31171 376.4426 108.9431"/>
<path transform="matrix(.5454546,0,0,.5454546,0,0)" stroke-width="2.311093" stroke-linecap="round" stroke-linejoin="round" fill="none" stroke="#ff88d5" d="M376.9494 96.17267C381.9145 89.55922 387.1862 89.06921 392.7645 94.70264"/>
<path transform="matrix(.5454546,0,0,.5454546,0,0)" stroke-width="2.311093" stroke-linecap="round" stroke-linejoin="round" fill="none" stroke="#ff88d5" d="M392.7645 94.70264 392.7744 109.6447"/>
<path transform="matrix(.5454546,0,0,.5454546,0,0)" stroke-width="2.640332" stroke-linecap="round" stroke-linejoin="round" fill="none" stroke="#88c8ff" d="M242.3607 122.8996 242.3806 132.4879"/>
<path transform="matrix(.5454546,0,0,.5454546,0,0)" stroke-width="2.640332" stroke-linecap="round" stroke-linejoin="round" fill="none" stroke="#88c8ff" d="M238.9903 121.0057 246.4731 120.9902"/>
<path transform="matrix(.5454546,0,0,.5454546,0,0)" stroke-width="2.640332" stroke-linecap="round" stroke-linejoin="round" fill="none" stroke="#88c8ff" d="M252.4083 125.0164C248.5616 124.8995 246.8561 127.1523 247.2917 131.7747"/>
<path transform="matrix(.5454546,0,0,.5454546,0,0)" stroke-width="2.640332" stroke-linecap="round" stroke-linejoin="round" fill="none" stroke="#88c8ff" d="M247.2917 131.7747C248.5716 133.1696 250.4404 133.053 252.8984 131.4251"/>
<path transform="matrix(.5454546,0,0,.5454546,0,0)" stroke-width="2.640332" stroke-linecap="round" stroke-linejoin="round" fill="none" stroke="#88c8ff" d="M252.4083 125.0164 252.8984 131.4251"/>
<path transform="matrix(.5454546,0,0,.5454546,0,0)" stroke-width="2.640332" stroke-linecap="round" stroke-linejoin="round" fill="none" stroke="#88c8ff" d="M252.8984 131.4251 253.0491 132.3365 253.2758 132.8849 252.8984 131.4251"/>
<path transform="matrix(.5454546,0,0,.5454546,0,0)" stroke-width="2.640332" stroke-linecap="round" stroke-linejoin="round" fill="none" stroke="#88c8ff" d="M257.198 121.5675 257.2215 132.8895"/>
<path transform="matrix(.5454546,0,0,.5454546,0,0)" stroke-width="2.640332" stroke-linecap="round" stroke-linejoin="round" fill="none" stroke="#88c8ff" d="M258.1389 129.4824 262.0493 125.5557"/>
<path transform="matrix(.5454546,0,0,.5454546,0,0)" stroke-width="2.640332" stroke-linecap="round" stroke-linejoin="round" fill="none" stroke="#88c8ff" d="M258.1389 129.4824 261.5848 132.914"/>
<path transform="matrix(.5454546,0,0,.5454546,0,0)" stroke-width="2.640332" stroke-linecap="round" stroke-linejoin="round" fill="none" stroke="#88c8ff" d="M266.3531 128.1939 270.7239 128.1849"/>
<path transform="matrix(.5454546,0,0,.5454546,0,0)" stroke-width="2.640332" stroke-linecap="round" stroke-linejoin="round" fill="none" stroke="#88c8ff" d="M270.7239 128.1849C270.7056 126.3354 269.8912 125.1897 268.2809 124.7479"/>
<path transform="matrix(.5454546,0,0,.5454546,0,0)" stroke-width="2.640332" stroke-linecap="round" stroke-linejoin="round" fill="none" stroke="#88c8ff" d="M268.2809 124.7479C265.4652 125.4984 264.4452 127.6829 265.2212 131.3014"/>
<path transform="matrix(.5454546,0,0,.5454546,0,0)" stroke-width="2.640332" stroke-linecap="round" stroke-linejoin="round" fill="none" stroke="#88c8ff" d="M265.2212 131.3014V131.3014"/>
<path transform="matrix(.5454546,0,0,.5454546,0,0)" stroke-width="2.640332" stroke-linecap="round" stroke-linejoin="round" fill="none" stroke="#88c8ff" d="M265.2212 131.3014C266.57 132.6554 268.3428 133.1247 270.5396 132.7093"/>
<path transform="matrix(.5454546,0,0,.5454546,0,0)" stroke-width="2.640332" stroke-linecap="round" stroke-linejoin="round" fill="none" stroke="#88c8ff" d="M278.6201 120.6483 278.6453 132.8217"/>
<path transform="matrix(.5454546,0,0,.5454546,0,0)" stroke-width="2.640332" stroke-linecap="round" stroke-linejoin="round" fill="none" stroke="#88c8ff" d="M279.4868 128.7153C281.6526 124.3669 283.3371 123.9055 284.5401 127.3311"/>
<path transform="matrix(.5454546,0,0,.5454546,0,0)" stroke-width="2.640332" stroke-linecap="round" stroke-linejoin="round" fill="none" stroke="#88c8ff" d="M284.5401 127.3311 284.5515 132.8105"/>
<path transform="matrix(.5454546,0,0,.5454546,0,0)" stroke-width="2.640332" stroke-linecap="round" stroke-linejoin="round" fill="none" stroke="#88c8ff" d="M289.3527 128.7817 294.449 128.7711"/>
<path transform="matrix(.5454546,0,0,.5454546,0,0)" stroke-width="2.640332" stroke-linecap="round" stroke-linejoin="round" fill="none" stroke="#88c8ff" d="M294.449 128.7711C294.59 125.9388 293.4462 124.7772 291.0177 125.2865"/>
<path transform="matrix(.5454546,0,0,.5454546,0,0)" stroke-width="2.640332" stroke-linecap="round" stroke-linejoin="round" fill="none" stroke="#88c8ff" d="M291.0177 125.2865C288.5881 127.0666 287.806 129.396 288.6715 132.2748"/>
<path transform="matrix(.5454546,0,0,.5454546,0,0)" stroke-width="2.640332" stroke-linecap="round" stroke-linejoin="round" fill="none" stroke="#88c8ff" d="M288.6715 132.2748C290.7697 133.2595 292.7392 133.4425 294.58 132.8239"/>
<path transform="matrix(.5454546,0,0,.5454546,0,0)" stroke-width="2.640332" stroke-linecap="round" stroke-linejoin="round" fill="none" stroke="#88c8ff" d="M303.108 125.8476C299.8322 124.9206 298.0619 126.238 297.7972 129.7999"/>
<path transform="matrix(.5454546,0,0,.5454546,0,0)" stroke-width="2.640332" stroke-linecap="round" stroke-linejoin="round" fill="none" stroke="#88c8ff" d="M297.7972 129.7999C298.4134 133.0269 300.2042 133.3591 303.1695 130.7966"/>
<path transform="matrix(.5454546,0,0,.5454546,0,0)" stroke-width="2.640332" stroke-linecap="round" stroke-linejoin="round" fill="none" stroke="#88c8ff" d="M303.108 125.8476 303.9352 133.3378"/>
<path transform="matrix(.5454546,0,0,.5454546,0,0)" stroke-width="2.640332" stroke-linecap="round" stroke-linejoin="round" fill="none" stroke="#88c8ff" d="M308.3869 121.0612 308.4122 133.2949"/>
<path transform="matrix(.5454546,0,0,.5454546,0,0)" stroke-width="2.640332" stroke-linecap="round" stroke-linejoin="round" fill="none" stroke="#88c8ff" d="M313.0901 121.3646 313.1123 132.0643"/>
<path transform="matrix(.5454546,0,0,.5454546,0,0)" stroke-width="2.640332" stroke-linecap="round" stroke-linejoin="round" fill="none" stroke="#88c8ff" d="M313.1123 132.0643C314.0505 133.55 315.0978 133.649 316.254 132.3612"/>
<path transform="matrix(.5454546,0,0,.5454546,0,0)" stroke-width="2.640332" stroke-linecap="round" stroke-linejoin="round" fill="none" stroke="#88c8ff" d="M311.7856 124.8249 315.9857 124.8162"/>
<path transform="matrix(.5454546,0,0,.5454546,0,0)" stroke-width="2.640332" stroke-linecap="round" stroke-linejoin="round" fill="none" stroke="#88c8ff" d="M319.3215 121.1501 319.3464 133.1819"/>
<path transform="matrix(.5454546,0,0,.5454546,0,0)" stroke-width="2.640332" stroke-linecap="round" stroke-linejoin="round" fill="none" stroke="#88c8ff" d="M320.0082 127.6453C322.8808 124.3925 324.742 124.2719 325.5916 127.2833"/>
<path transform="matrix(.5454546,0,0,.5454546,0,0)" stroke-width="2.640332" stroke-linecap="round" stroke-linejoin="round" fill="none" stroke="#88c8ff" d="M325.5916 127.2833 325.1781 133.1202"/>
<path transform="matrix(.5454546,0,0,.5454546,0,0)" stroke-width="2.129395" stroke-linecap="round" stroke-linejoin="round" fill="none" stroke="#ff88d5" d="M99.24675 70.74805 111.7318 70.75327"/>
<path transform="matrix(.5454546,0,0,.5454546,0,0)" stroke-width="2.129395" stroke-linecap="round" stroke-linejoin="round" fill="none" stroke="#ff88d5" d="M111.7318 70.75327 111.7299 75.16306"/>
<path transform="matrix(.5454546,0,0,.5454546,0,0)" stroke-width="2.129395" stroke-linecap="round" stroke-linejoin="round" fill="none" stroke="#ff88d5" d="M99.24675 70.74805 99.2119 76.3085"/>
<path transform="matrix(.5454546,0,0,.5454546,0,0)" stroke-width="2.129395" stroke-linecap="round" stroke-linejoin="round" fill="none" stroke="#ff88d5" d="M111.7299 75.16306 121.0361 75.16693"/>
<path transform="matrix(.5454546,0,0,.5454546,0,0)" stroke-width="2.129395" stroke-linecap="round" stroke-linejoin="round" fill="none" stroke="#ff88d5" d="M122.2741 75.16553C122.2502 74.91583 122.3174 74.72802 122.4758 74.60208"/>
<path transform="matrix(.5454546,0,0,.5454546,0,0)" stroke-width="2.129395" stroke-linecap="round" stroke-linejoin="round" fill="none" stroke="#ff88d5" d="M123.6642 72.72528 117.2349 82.88947"/>
<path transform="matrix(.5454546,0,0,.5454546,0,0)" stroke-width="2.129395" stroke-linecap="round" stroke-linejoin="round" fill="none" stroke="#ff88d5" d="M117.2349 82.88947 117.2289 97.27191"/>
<path transform="matrix(.5454546,0,0,.5454546,0,0)" stroke-width="2.129395" stroke-linecap="round" stroke-linejoin="round" fill="none" stroke="#ff88d5" d="M123.6642 72.72528C137.1288 79.81205 141.4114 88.90239 136.5119 99.99631"/>
<path transform="matrix(.5454546,0,0,.5454546,0,0)" stroke-width="2.129395" stroke-linecap="round" stroke-linejoin="round" fill="none" stroke="#ff88d5" d="M136.5119 99.99631 140.829 110.4196"/>
<path transform="matrix(.5454546,0,0,.5454546,0,0)" stroke-width="2.129395" stroke-linecap="round" stroke-linejoin="round" fill="none" stroke="#ff88d5" d="M140.829 110.4196 136.2585 110.8823"/>
<path transform="matrix(.5454546,0,0,.5454546,0,0)" stroke-width="2.129395" stroke-linecap="round" stroke-linejoin="round" fill="none" stroke="#ff88d5" d="M136.2585 110.8823 136.2563 116.092"/>
<path transform="matrix(.5454546,0,0,.5454546,0,0)" stroke-width="2.129395" stroke-linecap="round" stroke-linejoin="round" fill="none" stroke="#ff88d5" d="M127.9277 113.126C130.1317 114.943 132.9079 115.9317 136.2563 116.092"/>
<path transform="matrix(.5454546,0,0,.5454546,0,0)" stroke-width="2.129395" stroke-linecap="round" stroke-linejoin="round" fill="none" stroke="#ff88d5" d="M136.2563 116.092 133.2678 119.3784 133.6588 125.794"/>
<path transform="matrix(.5454546,0,0,.5454546,0,0)" stroke-width="2.129395" stroke-linecap="round" stroke-linejoin="round" fill="none" stroke="#ff88d5" d="M126.0126 125.6255 133.6588 125.794"/>
<path transform="matrix(.5454546,0,0,.5454546,0,0)" stroke-width="2.129395" stroke-linecap="round" stroke-linejoin="round" fill="none" stroke="#ff88d5" d="M114.3748 119.8039 126.0126 125.6255"/>
<path transform="matrix(.5454546,0,0,.5454546,0,0)" stroke-width="2.129395" stroke-linecap="round" stroke-linejoin="round" fill="none" stroke="#ff88d5" d="M114.5131 109.5821 114.3748 119.8039"/>
<path transform="matrix(.5454546,0,0,.5454546,0,0)" stroke-width="2.129395" stroke-linecap="round" stroke-linejoin="round" fill="none" stroke="#ff88d5" d="M114.5131 109.5821 120.3343 106.8548"/>
<path transform="matrix(.5454546,0,0,.5454546,0,0)" stroke-width="2.129395" stroke-linecap="round" stroke-linejoin="round" fill="none" stroke="#ff88d5" d="M120.7969 102.3428 120.3343 106.8548"/>
<path transform="matrix(.5454546,0,0,.5454546,0,0)" stroke-width="2.129395" stroke-linecap="round" stroke-linejoin="round" fill="none" stroke="#ff88d5" d="M117.2289 97.27191 120.7969 102.3428"/>
<path transform="matrix(.5454546,0,0,.5454546,0,0)" stroke-width="2.129395" stroke-linecap="round" stroke-linejoin="round" fill="none" stroke="#ff88d5" d="M132.0731 95.66846 132.0714 99.54977"/>
<path transform="matrix(.5454546,0,0,.5454546,0,0)" stroke-width="2.129395" stroke-linecap="round" stroke-linejoin="round" fill="none" stroke="#ff88d5" d="M132.0714 99.54977 128.0867 99.54813"/>
<path transform="matrix(.5454546,0,0,.5454546,0,0)" stroke-width="2.129395" stroke-linecap="round" stroke-linejoin="round" fill="none" stroke="#ff88d5" d="M122.2979 82.25616 122.2963 86.00485"/>
<path transform="matrix(.5454546,0,0,.5454546,0,0)" stroke-width="2.129395" stroke-linecap="round" stroke-linejoin="round" fill="none" stroke="#ff88d5" d="M122.1897 89.31747 122.1891 91.02625"/>
<path transform="matrix(.5454546,0,0,.5454546,0,0)" stroke-width="2.129395" stroke-linecap="round" stroke-linejoin="round" fill="none" stroke="#ff88d5" d="M122.3184 94.39359 122.3177 96.07022"/>
<path transform="matrix(.5454546,0,0,.5454546,0,0)" stroke-width="2.129395" stroke-linecap="round" stroke-linejoin="round" fill="none" stroke="#ff88d5" d="M95.9433 76.68228 101.953 76.68478"/>
<path transform="matrix(.5454546,0,0,.5454546,0,0)" stroke-width="2.129395" stroke-linecap="round" stroke-linejoin="round" fill="none" stroke="#ff88d5" d="M101.953 76.68478 101.9507 82.34543"/>
<path transform="matrix(.5454546,0,0,.5454546,0,0)" stroke-width="2.129395" stroke-linecap="round" stroke-linejoin="round" fill="none" stroke="#ff88d5" d="M95.9433 76.68228 95.94095 82.34848"/>
<path transform="matrix(.5454546,0,0,.5454546,0,0)" stroke-width="2.129395" stroke-linecap="round" stroke-linejoin="round" fill="none" stroke="#ff88d5" d="M101.9507 82.34543 103.7162 83.63168"/>
<path transform="matrix(.5454546,0,0,.5454546,0,0)" stroke-width="2.129395" stroke-linecap="round" stroke-linejoin="round" fill="none" stroke="#ff88d5" d="M103.7162 83.63168 109.3227 81.2576"/>
<path transform="matrix(.5454546,0,0,.5454546,0,0)" stroke-width="2.129395" stroke-linecap="round" stroke-linejoin="round" fill="none" stroke="#ff88d5" d="M109.3227 81.2576 112.1262 85.7886"/>
<path transform="matrix(.5454546,0,0,.5454546,0,0)" stroke-width="2.129395" stroke-linecap="round" stroke-linejoin="round" fill="none" stroke="#ff88d5" d="M112.1262 85.7886 107.89 89.18707"/>
<path transform="matrix(.5454546,0,0,.5454546,0,0)" stroke-width="2.129395" stroke-linecap="round" stroke-linejoin="round" fill="none" stroke="#ff88d5" d="M107.89 89.18707 107.889 91.7793"/>
<path transform="matrix(.5454546,0,0,.5454546,0,0)" stroke-width="2.129395" stroke-linecap="round" stroke-linejoin="round" fill="none" stroke="#ff88d5" d="M107.889 91.7793 112.1798 95.25082"/>
<path transform="matrix(.5454546,0,0,.5454546,0,0)" stroke-width="2.129395" stroke-linecap="round" stroke-linejoin="round" fill="none" stroke="#ff88d5" d="M112.1798 95.25082 109.6474 99.50009"/>
<path transform="matrix(.5454546,0,0,.5454546,0,0)" stroke-width="2.129395" stroke-linecap="round" stroke-linejoin="round" fill="none" stroke="#ff88d5" d="M109.6474 99.50009 104.4446 97.49063"/>
<path transform="matrix(.5454546,0,0,.5454546,0,0)" stroke-width="2.129395" stroke-linecap="round" stroke-linejoin="round" fill="none" stroke="#ff88d5" d="M104.4446 97.49063 102.2681 98.7309"/>
<path transform="matrix(.5454546,0,0,.5454546,0,0)" stroke-width="2.129395" stroke-linecap="round" stroke-linejoin="round" fill="none" stroke="#ff88d5" d="M102.2681 98.7309 101.9337 104.5829"/>
<path transform="matrix(.5454546,0,0,.5454546,0,0)" stroke-width="2.129395" stroke-linecap="round" stroke-linejoin="round" fill="none" stroke="#ff88d5" d="M101.9337 104.5829 96.40076 104.5806"/>
<path transform="matrix(.5454546,0,0,.5454546,0,0)" stroke-width="2.129395" stroke-linecap="round" stroke-linejoin="round" fill="none" stroke="#ff88d5" d="M96.40076 104.5806 96.10394 99.02524"/>
<path transform="matrix(.5454546,0,0,.5454546,0,0)" stroke-width="2.129395" stroke-linecap="round" stroke-linejoin="round" fill="none" stroke="#ff88d5" d="M96.10394 99.02524 94.05472 97.47775"/>
<path transform="matrix(.5454546,0,0,.5454546,0,0)" stroke-width="2.129395" stroke-linecap="round" stroke-linejoin="round" fill="none" stroke="#ff88d5" d="M94.05472 97.47775 88.86958 99.99222"/>
<path transform="matrix(.5454546,0,0,.5454546,0,0)" stroke-width="2.129395" stroke-linecap="round" stroke-linejoin="round" fill="none" stroke="#ff88d5" d="M88.27806 99.68542 85.79333 95.87515"/>
<path transform="matrix(.5454546,0,0,.5454546,0,0)" stroke-width="2.129395" stroke-linecap="round" stroke-linejoin="round" fill="none" stroke="#ff88d5" d="M85.79333 95.87515 90.13725 92.3046"/>
<path transform="matrix(.5454546,0,0,.5454546,0,0)" stroke-width="2.129395" stroke-linecap="round" stroke-linejoin="round" fill="none" stroke="#ff88d5" d="M90.13725 92.3046 90.35861 89.64981"/>
<path transform="matrix(.5454546,0,0,.5454546,0,0)" stroke-width="2.129395" stroke-linecap="round" stroke-linejoin="round" fill="none" stroke="#ff88d5" d="M90.06953 88.92944 85.65111 85.98441"/>
<path transform="matrix(.5454546,0,0,.5454546,0,0)" stroke-width="2.129395" stroke-linecap="round" stroke-linejoin="round" fill="none" stroke="#ff88d5" d="M85.65111 85.98441 88.13454 81.35733"/>
<path transform="matrix(.5454546,0,0,.5454546,0,0)" stroke-width="2.129395" stroke-linecap="round" stroke-linejoin="round" fill="none" stroke="#ff88d5" d="M88.67418 80.88275 93.62875 83.75513"/>
<path transform="matrix(.5454546,0,0,.5454546,0,0)" stroke-width="2.129395" stroke-linecap="round" stroke-linejoin="round" fill="none" stroke="#ff88d5" d="M93.62875 83.75513 95.94095 82.34848"/>
<path transform="matrix(.5454546,0,0,.5454546,0,0)" stroke-width="2.129395" stroke-linecap="round" stroke-linejoin="round" fill="none" stroke="#ff88d5" d="M101.8442 87.83697C103.5435 89.45387 103.6102 92.14216 101.9933 93.84142 100.3764 95.54068 97.68815 95.60745 95.98889 93.99054 94.28963 92.37364 94.22286 89.68536 95.83976 87.9861 97.45667 86.28683 100.1449 86.22007 101.8442 87.83697Z"/>
<path transform="matrix(.5454546,0,0,.5454546,0,0)" stroke-width="2.129395" stroke-linecap="round" stroke-linejoin="round" fill="none" stroke="#ff88d5" d="M111.6302 82.83029 116.2878 82.83224"/>
<path transform="matrix(.5454546,0,0,.5454546,0,0)" stroke-width="2.129395" stroke-linecap="round" stroke-linejoin="round" fill="none" stroke="#ff88d5" d="M109.2173 90.52292 116.7099 90.52603"/>
<path transform="matrix(.5454546,0,0,.5454546,0,0)" stroke-width="2.129395" stroke-linecap="round" stroke-linejoin="round" fill="none" stroke="#ff88d5" d="M111.4649 97.879 117.637 97.88159"/>
<path transform="matrix(.5454546,0,0,.5454546,0,0)" stroke-width="2.129395" stroke-linecap="round" stroke-linejoin="round" fill="none" stroke="#ff88d5" d="M120.157 105.6499 115.7498 105.648"/>
<path transform="matrix(.5454546,0,0,.5454546,0,0)" stroke-width="2.129395" stroke-linecap="round" stroke-linejoin="round" fill="none" stroke="#ff88d5" d="M111.7614 105.6571 110.7339 105.6567"/>
<path transform="matrix(.5454546,0,0,.5454546,0,0)" stroke-width="2.129395" stroke-linecap="round" stroke-linejoin="round" fill="none" stroke="#ff88d5" d="M106.9463 105.7388 105.6166 105.7383"/>
<path transform="matrix(.5454546,0,0,.5454546,0,0)" stroke-width="2.129395" stroke-linecap="round" stroke-linejoin="round" fill="none" stroke="#ff88d5" d="M116.7924 122.1311 113.5663 126.6078"/>
<path transform="matrix(.5454546,0,0,.5454546,0,0)" stroke-width="2.129395" stroke-linecap="round" stroke-linejoin="round" fill="none" stroke="#ff88d5" d="M113.5663 126.6078 113.5629 134.7144"/>
<path transform="matrix(.5454546,0,0,.5454546,0,0)" stroke-width="2.129395" stroke-linecap="round" stroke-linejoin="round" fill="none" stroke="#ff88d5" d="M113.5629 134.7144 122.6779 143.8371"/>
<path transform="matrix(.5454546,0,0,.5454546,0,0)" stroke-width="2.129395" stroke-linecap="round" stroke-linejoin="round" fill="none" stroke="#ff88d5" d="M98.35611 105.5605 98.35298 113.1301"/>
<path transform="matrix(.5454546,0,0,.5454546,0,0)" stroke-width="2.129395" stroke-linecap="round" stroke-linejoin="round" fill="none" stroke="#ff88d5" d="M113.6611 113.4425 93.30267 113.4341"/>
<path transform="matrix(.5454546,0,0,.5454546,0,0)" stroke-width="2.129395" stroke-linecap="round" stroke-linejoin="round" fill="none" stroke="#ff88d5" d="M93.30267 113.4341 93.2951 131.684"/>
<path transform="matrix(.5454546,0,0,.5454546,0,0)" stroke-width="2.129395" stroke-linecap="round" stroke-linejoin="round" fill="none" stroke="#ff88d5" d="M93.2951 131.684 81.83541 143.1341"/>
<path transform="matrix(.5454546,0,0,.5454546,0,0)" stroke-width="2.129395" stroke-linecap="round" stroke-linejoin="round" fill="none" stroke="#ff88d5" d="M81.83541 143.1341 122.6779 143.8371"/>
<path transform="matrix(.5454546,0,0,.5454546,0,0)" stroke-width="2.129395" stroke-linecap="round" stroke-linejoin="round" fill="none" stroke="#ff88d5" d="M108.524 113.8972 108.5208 121.4571"/>
<path transform="matrix(.5454546,0,0,.5454546,0,0)" stroke-width="2.129395" stroke-linecap="round" stroke-linejoin="round" fill="none" stroke="#ff88d5" d="M108.5208 121.4571 113.5663 126.6078"/>
<path transform="matrix(.5454546,0,0,.5454546,0,0)" stroke-width="2.129395" stroke-linecap="round" stroke-linejoin="round" fill="none" stroke="#ff88d5" d="M103.8388 114.7535 103.8312 133.0668"/>
<path transform="matrix(.5454546,0,0,.5454546,0,0)" stroke-width="2.129395" stroke-linecap="round" stroke-linejoin="round" fill="none" stroke="#ff88d5" d="M103.8312 133.0668 93.74647 143.1432"/>
<path transform="matrix(.5454546,0,0,.5454546,0,0)" stroke-width="2.129395" stroke-linecap="round" stroke-linejoin="round" fill="none" stroke="#ff88d5" d="M104.6789 129.3093 113.0854 129.3128"/>
<path transform="matrix(.5454546,0,0,.5454546,0,0)" stroke-width="2.129395" stroke-linecap="round" stroke-linejoin="round" fill="none" stroke="#ff88d5" d="M108.5779 130.0951 108.5723 143.5167"/>
<path transform="matrix(.5454546,0,0,.5454546,0,0)" stroke-width="2.129395" stroke-linecap="round" stroke-linejoin="round" fill="none" stroke="#ff88d5" d="M98.09378 130.1974 98.09051 138.1189"/>
<path transform="matrix(.5454546,0,0,.5454546,0,0)" stroke-width="2.129395" stroke-linecap="round" stroke-linejoin="round" fill="none" stroke="#ff88d5" d="M98.3036 124.6693C98.26976 125.9437 98.26079 126.4281 98.2767 126.1225"/>
<path transform="matrix(.5454546,0,0,.5454546,0,0)" stroke-width="2.129395" stroke-linecap="round" stroke-linejoin="round" fill="none" stroke="#ff88d5" d="M98.21878 120.0424 98.2182 121.3655"/>
<path transform="matrix(.5454546,0,0,.5454546,0,0)" stroke-width="2.129395" stroke-linecap="round" stroke-linejoin="round" fill="none" stroke="#ff88d5" d="M88.25285 100.5027 88.25015 106.9814"/>
<path transform="matrix(.5454546,0,0,.5454546,0,0)" stroke-width="2.129395" stroke-linecap="round" stroke-linejoin="round" fill="none" stroke="#ff88d5" d="M88.25015 106.9814 80.48264 106.9782"/>
<path transform="matrix(.5454546,0,0,.5454546,0,0)" stroke-width="2.129395" stroke-linecap="round" stroke-linejoin="round" fill="none" stroke="#ff88d5" d="M79.25774 105.6508C79.93104 106.9794 79.39986 108.6022 78.07131 109.2755 76.74276 109.9488 75.11994 109.4176 74.44664 108.0891 73.77334 106.7605 74.30452 105.1377 75.63307 104.4644 76.96162 103.7911 78.58444 104.3223 79.25774 105.6508Z"/>
<path transform="matrix(.5454546,0,0,.5454546,0,0)" stroke-width="2.129395" stroke-linecap="round" stroke-linejoin="round" fill="none" stroke="#ff88d5" d="M89.0529 91.46817 76.46535 91.46295"/>
<path transform="matrix(.5454546,0,0,.5454546,0,0)" stroke-width="2.129395" stroke-linecap="round" stroke-linejoin="round" fill="none" stroke="#ff88d5" d="M74.78935 93.99184C73.7197 94.99889 72.03619 94.94815 71.02913 93.87849 70.02207 92.80884 70.07282 91.12533 71.14247 90.11827 72.21213 89.11121 73.89564 89.16196 74.90269 90.23161 75.90975 91.30127 75.85901 92.98478 74.78935 93.99184Z"/>
<path transform="matrix(.5454546,0,0,.5454546,0,0)" stroke-width="2.129395" stroke-linecap="round" stroke-linejoin="round" fill="none" stroke="#ff88d5" d="M85.17905 84.39606 77.14844 84.39273"/>
<path transform="matrix(.5454546,0,0,.5454546,0,0)" stroke-width="2.129395" stroke-linecap="round" stroke-linejoin="round" fill="none" stroke="#ff88d5" d="M77.14844 84.39273 77.15103 78.12006"/>
<path transform="matrix(.5454546,0,0,.5454546,0,0)" stroke-width="2.129395" stroke-linecap="round" stroke-linejoin="round" fill="none" stroke="#ff88d5" d="M78.39802 77.22019C77.32564 78.07221 75.7656 77.89358 74.91358 76.82119 74.06156 75.74881 74.2402 74.18877 75.31258 73.33675 76.38496 72.48473 77.945 72.66337 78.79702 73.73575 79.64904 74.80814 79.4704 76.36817 78.39802 77.22019Z"/>
<path transform="matrix(1,0,0,-1,0,587.52)" d="M22.90909 558.0655H432V34.42909H22.90909V558.0655Z" fill-opacity="0"/>
<path transform="matrix(.5454546,0,0,.5454546,0,0)" stroke-width="10" stroke-linecap="butt" stroke-miterlimit="10" stroke-linejoin="miter" fill="none" stroke="#000000" stroke-opacity="0" d="M37 49H797V1019H37V49Z"/>
<text fill-opacity="0" xml:space="preserve" transform="matrix(1.359328 0 -0 .5454546 66.09467 41.283205)" font-size="2.256522" font-family=".SFUI"><tspan y="0" x="0">r</tspan></text>
</svg>
