<svg xmlns="http://www.w3.org/2000/svg" xmlns:xlink="http://www.w3.org/1999/xlink" version="1.1" width="455.04" height="587.52" viewBox="0 0 455.04 587.52">
<path transform="matrix(.5454546,0,0,.5454546,0,0)" stroke-width="1.860483" stroke-linecap="round" stroke-linejoin="round" fill="none" stroke="#ff88d5" d="M167.6461 60.01648 178.5544 60.02155"/>
<path transform="matrix(.5454546,0,0,.5454546,0,0)" stroke-width="1.860483" stroke-linecap="round" stroke-linejoin="round" fill="none" stroke="#ff88d5" d="M178.5544 60.02155 178.5526 63.87447"/>
<path transform="matrix(.5454546,0,0,.5454546,0,0)" stroke-width="1.860483" stroke-linecap="round" stroke-linejoin="round" fill="none" stroke="#ff88d5" d="M167.6461 60.01648 167.6154 64.87473"/>
<path transform="matrix(.5454546,0,0,.5454546,0,0)" stroke-width="1.860483" stroke-linecap="round" stroke-linejoin="round" fill="none" stroke="#ff88d5" d="M178.5526 63.87447 186.6835 63.87825"/>
<path transform="matrix(.5454546,0,0,.5454546,0,0)" stroke-width="1.860483" stroke-linecap="round" stroke-linejoin="round" fill="none" stroke="#ff88d5" d="M187.7652 63.87708C187.7443 63.65892 187.8031 63.49483 187.9414 63.3848"/>
<path transform="matrix(.5454546,0,0,.5454546,0,0)" stroke-width="1.860483" stroke-linecap="round" stroke-linejoin="round" fill="none" stroke="#ff88d5" d="M188.9799 61.74506 183.362 70.62537"/>
<path transform="matrix(.5454546,0,0,.5454546,0,0)" stroke-width="1.860483" stroke-linecap="round" stroke-linejoin="round" fill="none" stroke="#ff88d5" d="M183.362 70.62537 183.3562 83.19151"/>
<path transform="matrix(.5454546,0,0,.5454546,0,0)" stroke-width="1.860483" stroke-linecap="round" stroke-linejoin="round" fill="none" stroke="#ff88d5" d="M188.9799 61.74506C200.7438 67.93746 204.4851 75.88001 200.2039 85.5727"/>
<path transform="matrix(.5454546,0,0,.5454546,0,0)" stroke-width="1.860483" stroke-linecap="round" stroke-linejoin="round" fill="none" stroke="#ff88d5" d="M200.2039 85.5727 203.9754 94.67982"/>
<path transform="matrix(.5454546,0,0,.5454546,0,0)" stroke-width="1.860483" stroke-linecap="round" stroke-linejoin="round" fill="none" stroke="#ff88d5" d="M203.9754 94.67982 199.982 95.0839"/>
<path transform="matrix(.5454546,0,0,.5454546,0,0)" stroke-width="1.860483" stroke-linecap="round" stroke-linejoin="round" fill="none" stroke="#ff88d5" d="M199.982 95.0839 199.9799 99.63572"/>
<path transform="matrix(.5454546,0,0,.5454546,0,0)" stroke-width="1.860483" stroke-linecap="round" stroke-linejoin="round" fill="none" stroke="#ff88d5" d="M192.7032 97.04394C194.6288 98.63154 197.0544 99.49547 199.9799 99.63572"/>
<path transform="matrix(.5454546,0,0,.5454546,0,0)" stroke-width="1.860483" stroke-linecap="round" stroke-linejoin="round" fill="none" stroke="#ff88d5" d="M199.9799 99.63572 197.3687 102.5069 197.71 108.1124"/>
<path transform="matrix(.5454546,0,0,.5454546,0,0)" stroke-width="1.860483" stroke-linecap="round" stroke-linejoin="round" fill="none" stroke="#ff88d5" d="M191.0295 107.9648 197.71 108.1124"/>
<path transform="matrix(.5454546,0,0,.5454546,0,0)" stroke-width="1.860483" stroke-linecap="round" stroke-linejoin="round" fill="none" stroke="#ff88d5" d="M180.8615 102.8779 191.0295 107.9648"/>
<path transform="matrix(.5454546,0,0,.5454546,0,0)" stroke-width="1.860483" stroke-linecap="round" stroke-linejoin="round" fill="none" stroke="#ff88d5" d="M180.9828 93.94701 180.8615 102.8779"/>
<path transform="matrix(.5454546,0,0,.5454546,0,0)" stroke-width="1.860483" stroke-linecap="round" stroke-linejoin="round" fill="none" stroke="#ff88d5" d="M180.9828 93.94701 186.069 91.5644"/>
<path transform="matrix(.5454546,0,0,.5454546,0,0)" stroke-width="1.860483" stroke-linecap="round" stroke-linejoin="round" fill="none" stroke="#ff88d5" d="M186.4734 87.62217 186.069 91.5644"/>
<path transform="matrix(.5454546,0,0,.5454546,0,0)" stroke-width="1.860483" stroke-linecap="round" stroke-linejoin="round" fill="none" stroke="#ff88d5" d="M183.3562 83.19151 186.4734 87.62217"/>
<path transform="matrix(.5454546,0,0,.5454546,0,0)" stroke-width="1.860483" stroke-linecap="round" stroke-linejoin="round" fill="none" stroke="#ff88d5" d="M196.3258 81.79119 196.3242 85.18235"/>
<path transform="matrix(.5454546,0,0,.5454546,0,0)" stroke-width="1.860483" stroke-linecap="round" stroke-linejoin="round" fill="none" stroke="#ff88d5" d="M196.3242 85.18235 192.8427 85.18073"/>
<path transform="matrix(.5454546,0,0,.5454546,0,0)" stroke-width="1.860483" stroke-linecap="round" stroke-linejoin="round" fill="none" stroke="#ff88d5" d="M187.7857 70.07226 187.7841 73.34756"/>
<path transform="matrix(.5454546,0,0,.5454546,0,0)" stroke-width="1.860483" stroke-linecap="round" stroke-linejoin="round" fill="none" stroke="#ff88d5" d="M187.6909 76.24184 187.6902 77.73481"/>
<path transform="matrix(.5454546,0,0,.5454546,0,0)" stroke-width="1.860483" stroke-linecap="round" stroke-linejoin="round" fill="none" stroke="#ff88d5" d="M187.8031 80.67691 187.8024 82.14181"/>
<path transform="matrix(.5454546,0,0,.5454546,0,0)" stroke-width="1.860483" stroke-linecap="round" stroke-linejoin="round" fill="none" stroke="#ff88d5" d="M164.7595 65.20116 170.0103 65.2036"/>
<path transform="matrix(.5454546,0,0,.5454546,0,0)" stroke-width="1.860483" stroke-linecap="round" stroke-linejoin="round" fill="none" stroke="#ff88d5" d="M170.0103 65.2036 170.008 70.14938"/>
<path transform="matrix(.5454546,0,0,.5454546,0,0)" stroke-width="1.860483" stroke-linecap="round" stroke-linejoin="round" fill="none" stroke="#ff88d5" d="M164.7595 65.20116 164.7572 70.1518"/>
<path transform="matrix(.5454546,0,0,.5454546,0,0)" stroke-width="1.860483" stroke-linecap="round" stroke-linejoin="round" fill="none" stroke="#ff88d5" d="M170.008 70.14938 171.5506 71.27329"/>
<path transform="matrix(.5454546,0,0,.5454546,0,0)" stroke-width="1.860483" stroke-linecap="round" stroke-linejoin="round" fill="none" stroke="#ff88d5" d="M171.5506 71.27329 176.4491 69.19926"/>
<path transform="matrix(.5454546,0,0,.5454546,0,0)" stroke-width="1.860483" stroke-linecap="round" stroke-linejoin="round" fill="none" stroke="#ff88d5" d="M176.4491 69.19926 178.8984 73.15816"/>
<path transform="matrix(.5454546,0,0,.5454546,0,0)" stroke-width="1.860483" stroke-linecap="round" stroke-linejoin="round" fill="none" stroke="#ff88d5" d="M178.8984 73.15816 175.197 76.12729"/>
<path transform="matrix(.5454546,0,0,.5454546,0,0)" stroke-width="1.860483" stroke-linecap="round" stroke-linejoin="round" fill="none" stroke="#ff88d5" d="M175.197 76.12729 175.196 78.39214"/>
<path transform="matrix(.5454546,0,0,.5454546,0,0)" stroke-width="1.860483" stroke-linecap="round" stroke-linejoin="round" fill="none" stroke="#ff88d5" d="M175.196 78.39214 178.9448 81.42545"/>
<path transform="matrix(.5454546,0,0,.5454546,0,0)" stroke-width="1.860483" stroke-linecap="round" stroke-linejoin="round" fill="none" stroke="#ff88d5" d="M178.9448 81.42545 176.732 85.13799"/>
<path transform="matrix(.5454546,0,0,.5454546,0,0)" stroke-width="1.860483" stroke-linecap="round" stroke-linejoin="round" fill="none" stroke="#ff88d5" d="M176.732 85.13799 172.1864 83.38207"/>
<path transform="matrix(.5454546,0,0,.5454546,0,0)" stroke-width="1.860483" stroke-linecap="round" stroke-linejoin="round" fill="none" stroke="#ff88d5" d="M172.1864 83.38207 170.2846 84.46561"/>
<path transform="matrix(.5454546,0,0,.5454546,0,0)" stroke-width="1.860483" stroke-linecap="round" stroke-linejoin="round" fill="none" stroke="#ff88d5" d="M170.2846 84.46561 169.9922 89.57854"/>
<path transform="matrix(.5454546,0,0,.5454546,0,0)" stroke-width="1.860483" stroke-linecap="round" stroke-linejoin="round" fill="none" stroke="#ff88d5" d="M169.9922 89.57854 165.158 89.5763"/>
<path transform="matrix(.5454546,0,0,.5454546,0,0)" stroke-width="1.860483" stroke-linecap="round" stroke-linejoin="round" fill="none" stroke="#ff88d5" d="M165.158 89.5763 164.8989 84.72251"/>
<path transform="matrix(.5454546,0,0,.5454546,0,0)" stroke-width="1.860483" stroke-linecap="round" stroke-linejoin="round" fill="none" stroke="#ff88d5" d="M164.8989 84.72251 163.1086 83.37037"/>
<path transform="matrix(.5454546,0,0,.5454546,0,0)" stroke-width="1.860483" stroke-linecap="round" stroke-linejoin="round" fill="none" stroke="#ff88d5" d="M163.1086 83.37037 158.5781 85.56707"/>
<path transform="matrix(.5454546,0,0,.5454546,0,0)" stroke-width="1.860483" stroke-linecap="round" stroke-linejoin="round" fill="none" stroke="#ff88d5" d="M158.0613 85.299 155.8905 81.96981"/>
<path transform="matrix(.5454546,0,0,.5454546,0,0)" stroke-width="1.860483" stroke-linecap="round" stroke-linejoin="round" fill="none" stroke="#ff88d5" d="M155.8905 81.96981 159.6861 78.85036"/>
<path transform="matrix(.5454546,0,0,.5454546,0,0)" stroke-width="1.860483" stroke-linecap="round" stroke-linejoin="round" fill="none" stroke="#ff88d5" d="M159.6861 78.85036 159.8796 76.53084"/>
<path transform="matrix(.5454546,0,0,.5454546,0,0)" stroke-width="1.860483" stroke-linecap="round" stroke-linejoin="round" fill="none" stroke="#ff88d5" d="M159.627 75.90142 155.7667 73.32811"/>
<path transform="matrix(.5454546,0,0,.5454546,0,0)" stroke-width="1.860483" stroke-linecap="round" stroke-linejoin="round" fill="none" stroke="#ff88d5" d="M155.7667 73.32811 157.9367 69.28548"/>
<path transform="matrix(.5454546,0,0,.5454546,0,0)" stroke-width="1.860483" stroke-linecap="round" stroke-linejoin="round" fill="none" stroke="#ff88d5" d="M158.4082 68.87086 162.737 71.38071"/>
<path transform="matrix(.5454546,0,0,.5454546,0,0)" stroke-width="1.860483" stroke-linecap="round" stroke-linejoin="round" fill="none" stroke="#ff88d5" d="M162.737 71.38071 164.7572 70.1518"/>
<path transform="matrix(.5454546,0,0,.5454546,0,0)" stroke-width="1.860483" stroke-linecap="round" stroke-linejoin="round" fill="none" stroke="#ff88d5" d="M169.9148 74.94743C171.3994 76.36021 171.4576 78.70901 170.0448 80.19361 168.632 81.67821 166.2832 81.73643 164.7986 80.32364 163.314 78.91086 163.2558 76.56207 164.6686 75.07746 166.0814 73.59286 168.4302 73.53465 169.9148 74.94743Z"/>
<path transform="matrix(.5454546,0,0,.5454546,0,0)" stroke-width="1.860483" stroke-linecap="round" stroke-linejoin="round" fill="none" stroke="#ff88d5" d="M178.4652 70.57345 182.5346 70.57534"/>
<path transform="matrix(.5454546,0,0,.5454546,0,0)" stroke-width="1.860483" stroke-linecap="round" stroke-linejoin="round" fill="none" stroke="#ff88d5" d="M176.3566 77.2945 182.903 77.29754"/>
<path transform="matrix(.5454546,0,0,.5454546,0,0)" stroke-width="1.860483" stroke-linecap="round" stroke-linejoin="round" fill="none" stroke="#ff88d5" d="M178.3201 83.72171 183.7127 83.72422"/>
<path transform="matrix(.5454546,0,0,.5454546,0,0)" stroke-width="1.860483" stroke-linecap="round" stroke-linejoin="round" fill="none" stroke="#ff88d5" d="M185.9141 90.5116 182.0636 90.5098"/>
<path transform="matrix(.5454546,0,0,.5454546,0,0)" stroke-width="1.860483" stroke-linecap="round" stroke-linejoin="round" fill="none" stroke="#ff88d5" d="M178.5788 90.51756 177.6811 90.51714"/>
<path transform="matrix(.5454546,0,0,.5454546,0,0)" stroke-width="1.860483" stroke-linecap="round" stroke-linejoin="round" fill="none" stroke="#ff88d5" d="M174.3717 90.58872 173.21 90.58819"/>
<path transform="matrix(.5454546,0,0,.5454546,0,0)" stroke-width="1.860483" stroke-linecap="round" stroke-linejoin="round" fill="none" stroke="#ff88d5" d="M182.9738 104.9113 180.1549 108.8225"/>
<path transform="matrix(.5454546,0,0,.5454546,0,0)" stroke-width="1.860483" stroke-linecap="round" stroke-linejoin="round" fill="none" stroke="#ff88d5" d="M180.1549 108.8225 180.1516 115.9054"/>
<path transform="matrix(.5454546,0,0,.5454546,0,0)" stroke-width="1.860483" stroke-linecap="round" stroke-linejoin="round" fill="none" stroke="#ff88d5" d="M180.1516 115.9054 188.1151 123.8764"/>
<path transform="matrix(.5454546,0,0,.5454546,0,0)" stroke-width="1.860483" stroke-linecap="round" stroke-linejoin="round" fill="none" stroke="#ff88d5" d="M166.8664 90.43259 166.8634 97.04626"/>
<path transform="matrix(.5454546,0,0,.5454546,0,0)" stroke-width="1.860483" stroke-linecap="round" stroke-linejoin="round" fill="none" stroke="#ff88d5" d="M180.2382 97.31989 162.4508 97.31162"/>
<path transform="matrix(.5454546,0,0,.5454546,0,0)" stroke-width="1.860483" stroke-linecap="round" stroke-linejoin="round" fill="none" stroke="#ff88d5" d="M162.4508 97.31162 162.4434 113.2568"/>
<path transform="matrix(.5454546,0,0,.5454546,0,0)" stroke-width="1.860483" stroke-linecap="round" stroke-linejoin="round" fill="none" stroke="#ff88d5" d="M162.4434 113.2568 152.4304 123.2605"/>
<path transform="matrix(.5454546,0,0,.5454546,0,0)" stroke-width="1.860483" stroke-linecap="round" stroke-linejoin="round" fill="none" stroke="#ff88d5" d="M152.4304 123.2605 188.1151 123.8764"/>
<path transform="matrix(.5454546,0,0,.5454546,0,0)" stroke-width="1.860483" stroke-linecap="round" stroke-linejoin="round" fill="none" stroke="#ff88d5" d="M175.7499 97.71688 175.7468 104.3221"/>
<path transform="matrix(.5454546,0,0,.5454546,0,0)" stroke-width="1.860483" stroke-linecap="round" stroke-linejoin="round" fill="none" stroke="#ff88d5" d="M175.7468 104.3221 180.1549 108.8225"/>
<path transform="matrix(.5454546,0,0,.5454546,0,0)" stroke-width="1.860483" stroke-linecap="round" stroke-linejoin="round" fill="none" stroke="#ff88d5" d="M171.6563 98.46488 171.6489 114.4655"/>
<path transform="matrix(.5454546,0,0,.5454546,0,0)" stroke-width="1.860483" stroke-linecap="round" stroke-linejoin="round" fill="none" stroke="#ff88d5" d="M171.6489 114.4655 162.8373 123.2689"/>
<path transform="matrix(.5454546,0,0,.5454546,0,0)" stroke-width="1.860483" stroke-linecap="round" stroke-linejoin="round" fill="none" stroke="#ff88d5" d="M172.3897 111.1825 179.7346 111.1859"/>
<path transform="matrix(.5454546,0,0,.5454546,0,0)" stroke-width="1.860483" stroke-linecap="round" stroke-linejoin="round" fill="none" stroke="#ff88d5" d="M175.7962 111.8692 175.7908 123.5959"/>
<path transform="matrix(.5454546,0,0,.5454546,0,0)" stroke-width="1.860483" stroke-linecap="round" stroke-linejoin="round" fill="none" stroke="#ff88d5" d="M166.6362 111.9581 166.6329 118.8793"/>
<path transform="matrix(.5454546,0,0,.5454546,0,0)" stroke-width="1.860483" stroke-linecap="round" stroke-linejoin="round" fill="none" stroke="#ff88d5" d="M166.8197 107.1282C166.7901 108.2416 166.7822 108.6649 166.7962 108.3979"/>
<path transform="matrix(.5454546,0,0,.5454546,0,0)" stroke-width="1.860483" stroke-linecap="round" stroke-linejoin="round" fill="none" stroke="#ff88d5" d="M166.7458 103.0856 166.7453 104.2416"/>
<path transform="matrix(.5454546,0,0,.5454546,0,0)" stroke-width="1.860483" stroke-linecap="round" stroke-linejoin="round" fill="none" stroke="#ff88d5" d="M158.0393 86.01307 158.0366 91.67362"/>
<path transform="matrix(.5454546,0,0,.5454546,0,0)" stroke-width="1.860483" stroke-linecap="round" stroke-linejoin="round" fill="none" stroke="#ff88d5" d="M158.0366 91.67362 151.25 91.67046"/>
<path transform="matrix(.5454546,0,0,.5454546,0,0)" stroke-width="1.860483" stroke-linecap="round" stroke-linejoin="round" fill="none" stroke="#ff88d5" d="M150.1799 90.51069C150.7681 91.67149 150.3039 93.08935 149.1431 93.67757 147.9823 94.26579 146.5645 93.80161 145.9763 92.64081 145.388 91.48001 145.8522 90.06215 147.013 89.47394 148.1738 88.88572 149.5917 89.34989 150.1799 90.51069Z"/>
<path transform="matrix(.5454546,0,0,.5454546,0,0)" stroke-width="1.860483" stroke-linecap="round" stroke-linejoin="round" fill="none" stroke="#ff88d5" d="M158.7387 78.11951 147.7407 78.1144"/>
<path transform="matrix(.5454546,0,0,.5454546,0,0)" stroke-width="1.860483" stroke-linecap="round" stroke-linejoin="round" fill="none" stroke="#ff88d5" d="M146.2763 80.32386C145.3417 81.20369 143.8708 81.15928 142.9909 80.22467 142.1111 79.29005 142.1555 77.81915 143.0901 76.93931 144.0247 76.05948 145.4957 76.10389 146.3755 77.0385 147.2553 77.97312 147.2109 79.44402 146.2763 80.32386Z"/>
<path transform="matrix(.5454546,0,0,.5454546,0,0)" stroke-width="1.860483" stroke-linecap="round" stroke-linejoin="round" fill="none" stroke="#ff88d5" d="M155.3543 71.94035 148.3379 71.93709"/>
<path transform="matrix(.5454546,0,0,.5454546,0,0)" stroke-width="1.860483" stroke-linecap="round" stroke-linejoin="round" fill="none" stroke="#ff88d5" d="M148.3379 71.93709 148.3404 66.45655"/>
<path transform="matrix(.5454546,0,0,.5454546,0,0)" stroke-width="1.860483" stroke-linecap="round" stroke-linejoin="round" fill="none" stroke="#ff88d5" d="M149.43 65.67039C148.493 66.41477 147.1299 66.25862 146.3856 65.32163 145.6412 64.38464 145.7973 63.02162 146.7343 62.27724 147.6713 61.53286 149.0343 61.68901 149.7787 62.626 150.5231 63.563 150.3669 64.92601 149.43 65.67039Z"/>
<path transform="matrix(.5454546,0,0,.5454546,0,0)" stroke-width="2.07874" stroke-linecap="round" stroke-linejoin="round" fill="none" stroke="#239cff" d="M75.55463 149.7017V161.0757"/>
<path transform="matrix(.5454546,0,0,.5454546,0,0)" stroke-width="2.07874" stroke-linecap="round" stroke-linejoin="round" fill="none" stroke="#239cff" d="M75.55463 149.7017H88.98538"/>
<path transform="matrix(.5454546,0,0,.5454546,0,0)" stroke-width="2.07874" stroke-linecap="round" stroke-linejoin="round" fill="none" stroke="#239cff" d="M75.06745 138.3102H89.0174"/>
<path transform="matrix(.5454546,0,0,.5454546,0,0)" stroke-width="2.07874" stroke-linecap="round" stroke-linejoin="round" fill="none" stroke="#239cff" d="M94.51324 146.5541C98.8863 143.1142 103.0529 143.4676 107.0129 147.6143"/>
<path transform="matrix(.5454546,0,0,.5454546,0,0)" stroke-width="2.07874" stroke-linecap="round" stroke-linejoin="round" fill="none" stroke="#239cff" d="M107.0129 147.6143V161.5623"/>
<path transform="matrix(.5454546,0,0,.5454546,0,0)" stroke-width="2.07874" stroke-linecap="round" stroke-linejoin="round" fill="none" stroke="#239cff" d="M107.1542 152.3121C97.47195 149.9381 93.02031 151.93 93.79924 158.288"/>
<path transform="matrix(.5454546,0,0,.5454546,0,0)" stroke-width="2.07874" stroke-linecap="round" stroke-linejoin="round" fill="none" stroke="#239cff" d="M94.21162 158.4676C98.5578 161.7507 102.6742 161.3067 106.5607 157.1357"/>
<path transform="matrix(.5454546,0,0,.5454546,0,0)" stroke-width="2.07874" stroke-linecap="round" stroke-linejoin="round" fill="none" stroke="#239cff" d="M127.9094 147.0657C125.5212 143.6715 122.1697 143.0901 117.8549 145.3217"/>
<path transform="matrix(.5454546,0,0,.5454546,0,0)" stroke-width="2.07874" stroke-linecap="round" stroke-linejoin="round" fill="none" stroke="#239cff" d="M117.8549 145.3217C114.0845 147.9618 112.9749 151.8528 114.526 156.9946"/>
<path transform="matrix(.5454546,0,0,.5454546,0,0)" stroke-width="2.07874" stroke-linecap="round" stroke-linejoin="round" fill="none" stroke="#239cff" d="M114.526 156.9946C118.3436 160.9786 122.7493 161.4222 127.7429 158.3256"/>
<path transform="matrix(.5454546,0,0,.5454546,0,0)" stroke-width="2.07874" stroke-linecap="round" stroke-linejoin="round" fill="none" stroke="#239cff" d="M135.3053 137.9476H149.289"/>
<path transform="matrix(.5454546,0,0,.5454546,0,0)" stroke-width="2.07874" stroke-linecap="round" stroke-linejoin="round" fill="none" stroke="#239cff" d="M135.1281 148.6771H149.3526"/>
<path transform="matrix(.5454546,0,0,.5454546,0,0)" stroke-width="2.07874" stroke-linecap="round" stroke-linejoin="round" fill="none" stroke="#239cff" d="M135.2167 160.8088H149.3643"/>
<path transform="matrix(.5454546,0,0,.5454546,0,0)" stroke-width="2.07874" stroke-linecap="round" stroke-linejoin="round" fill="none" stroke="#ff88d5" d="M157.8249 144.4436V160.966"/>
<path transform="matrix(.5454546,0,0,.5454546,0,0)" stroke-width="2.07874" stroke-linecap="round" stroke-linejoin="round" fill="none" stroke="#ff88d5" d="M158.1082 148.7832C162.6649 142.1026 167.0484 141.9003 171.2588 148.1762"/>
<path transform="matrix(.5454546,0,0,.5454546,0,0)" stroke-width="2.07874" stroke-linecap="round" stroke-linejoin="round" fill="none" stroke="#ff88d5" d="M171.2588 148.1762V161.3422"/>
<path transform="matrix(.5454546,0,0,.5454546,0,0)" stroke-width="2.07874" stroke-linecap="round" stroke-linejoin="round" fill="none" stroke="#ff88d5" d="M171.2588 148.1762C175.9791 142.8908 180.5549 142.3864 184.9862 146.6628"/>
<path transform="matrix(.5454546,0,0,.5454546,0,0)" stroke-width="2.07874" stroke-linecap="round" stroke-linejoin="round" fill="none" stroke="#ff88d5" d="M184.9862 146.6628V161.4451"/>
<path transform="matrix(.5454546,0,0,.5454546,0,0)" stroke-width="2.07874" stroke-linecap="round" stroke-linejoin="round" fill="none" stroke="#ff88d5" d="M193.2013 148.5587V155.4241"/>
<path transform="matrix(.5454546,0,0,.5454546,0,0)" stroke-width="2.07874" stroke-linecap="round" stroke-linejoin="round" fill="none" stroke="#ff88d5" d="M193.2013 155.4241C195.1096 159.2597 197.7075 161.0609 200.9951 160.8277"/>
<path transform="matrix(.5454546,0,0,.5454546,0,0)" stroke-width="2.07874" stroke-linecap="round" stroke-linejoin="round" fill="none" stroke="#ff88d5" d="M200.9951 160.8277C204.7241 160.2577 207.2201 158.6564 208.483 156.0239"/>
<path transform="matrix(.5454546,0,0,.5454546,0,0)" stroke-width="2.07874" stroke-linecap="round" stroke-linejoin="round" fill="none" stroke="#ff88d5" d="M208.483 156.0239V148.7293"/>
<path transform="matrix(.5454546,0,0,.5454546,0,0)" stroke-width="2.07874" stroke-linecap="round" stroke-linejoin="round" fill="none" stroke="#ff88d5" d="M208.483 148.7293C206.411 145.4936 203.7269 143.9646 200.4307 144.1422"/>
<path transform="matrix(.5454546,0,0,.5454546,0,0)" stroke-width="2.07874" stroke-linecap="round" stroke-linejoin="round" fill="none" stroke="#ff88d5" d="M200.4307 144.1422C197.0373 144.691 194.6275 146.1632 193.2013 148.5587"/>
<path transform="matrix(.5454546,0,0,.5454546,0,0)" stroke-width="2.07874" stroke-linecap="round" stroke-linejoin="round" fill="none" stroke="#ff88d5" d="M216.1849 140.5607 216.0183 158.0298"/>
<path transform="matrix(.5454546,0,0,.5454546,0,0)" stroke-width="2.07874" stroke-linecap="round" stroke-linejoin="round" fill="none" stroke="#ff88d5" d="M216.0183 158.0298C217.9305 160.965 220.2896 161.5553 223.0956 159.8008"/>
<path transform="matrix(.5454546,0,0,.5454546,0,0)" stroke-width="2.07874" stroke-linecap="round" stroke-linejoin="round" fill="none" stroke="#ff88d5" d="M213.1815 143.5641H222.882"/>
<path transform="matrix(.5454546,0,0,.5454546,0,0)" stroke-width="2.07874" stroke-linecap="round" stroke-linejoin="round" fill="none" stroke="#ff88d5" d="M229.8176 145.1749V160.7937"/>
<path transform="matrix(.5454546,0,0,.5454546,0,0)" stroke-width="2.07874" stroke-linecap="round" stroke-linejoin="round" fill="none" stroke="#ff88d5" d="M229.0473 136.5645H230.7929V138.31H229.0473V136.5645"/>
<path transform="matrix(.5454546,0,0,.5454546,0,0)" stroke-width="2.07874" stroke-linecap="round" stroke-linejoin="round" fill="none" stroke="#ff88d5" d="M237.0959 149.1879V156.4333"/>
<path transform="matrix(.5454546,0,0,.5454546,0,0)" stroke-width="2.07874" stroke-linecap="round" stroke-linejoin="round" fill="none" stroke="#ff88d5" d="M237.0959 156.4333C238.5766 159.0779 241.0173 160.4914 244.418 160.6741"/>
<path transform="matrix(.5454546,0,0,.5454546,0,0)" stroke-width="2.07874" stroke-linecap="round" stroke-linejoin="round" fill="none" stroke="#ff88d5" d="M244.418 160.6741C249.0266 159.9898 251.6743 158.5769 252.3609 156.4355"/>
<path transform="matrix(.5454546,0,0,.5454546,0,0)" stroke-width="2.07874" stroke-linecap="round" stroke-linejoin="round" fill="none" stroke="#ff88d5" d="M252.3609 156.4355V149.1659"/>
<path transform="matrix(.5454546,0,0,.5454546,0,0)" stroke-width="2.07874" stroke-linecap="round" stroke-linejoin="round" fill="none" stroke="#ff88d5" d="M237.0959 149.1879C238.6599 146.4368 241.0109 144.7296 244.1491 144.0665"/>
<path transform="matrix(.5454546,0,0,.5454546,0,0)" stroke-width="2.07874" stroke-linecap="round" stroke-linejoin="round" fill="none" stroke="#ff88d5" d="M244.3157 143.9831C247.9616 144.0753 250.6434 145.8028 252.3609 149.1659"/>
<path transform="matrix(.5454546,0,0,.5454546,0,0)" stroke-width="2.07874" stroke-linecap="round" stroke-linejoin="round" fill="none" stroke="#ff88d5" d="M259.6286 144.3731V160.2319"/>
<path transform="matrix(.5454546,0,0,.5454546,0,0)" stroke-width="2.07874" stroke-linecap="round" stroke-linejoin="round" fill="none" stroke="#ff88d5" d="M260.092 148.7457C264.5619 142.8 269.3039 142.3624 274.318 147.4328"/>
<path transform="matrix(.5454546,0,0,.5454546,0,0)" stroke-width="2.07874" stroke-linecap="round" stroke-linejoin="round" fill="none" stroke="#ff88d5" d="M274.318 147.4328V160.8726"/>
<path transform="matrix(.5454546,0,0,.5454546,0,0)" stroke-width="2.338583" stroke-linecap="round" stroke-linejoin="round" fill="none" stroke="#88c8ff" d="M139.5328 172.5817V181.0742"/>
<path transform="matrix(.5454546,0,0,.5454546,0,0)" stroke-width="2.338583" stroke-linecap="round" stroke-linejoin="round" fill="none" stroke="#88c8ff" d="M136.551 170.898H143.1786"/>
<path transform="matrix(.5454546,0,0,.5454546,0,0)" stroke-width="2.338583" stroke-linecap="round" stroke-linejoin="round" fill="none" stroke="#88c8ff" d="M148.4281 174.475C145.0213 174.3644 143.5065 176.3566 143.8839 180.4515"/>
<path transform="matrix(.5454546,0,0,.5454546,0,0)" stroke-width="2.338583" stroke-linecap="round" stroke-linejoin="round" fill="none" stroke="#88c8ff" d="M143.8839 180.4515C145.0149 181.6893 146.6704 181.5895 148.8504 180.1522"/>
<path transform="matrix(.5454546,0,0,.5454546,0,0)" stroke-width="2.338583" stroke-linecap="round" stroke-linejoin="round" fill="none" stroke="#88c8ff" d="M148.4281 174.475 148.8504 180.1522"/>
<path transform="matrix(.5454546,0,0,.5454546,0,0)" stroke-width="2.338583" stroke-linecap="round" stroke-linejoin="round" fill="none" stroke="#88c8ff" d="M148.8504 180.1522 148.9823 180.9597 149.1821 181.4458 148.8504 180.1522"/>
<path transform="matrix(.5454546,0,0,.5454546,0,0)" stroke-width="2.338583" stroke-linecap="round" stroke-linejoin="round" fill="none" stroke="#88c8ff" d="M152.6768 171.429V181.4571"/>
<path transform="matrix(.5454546,0,0,.5454546,0,0)" stroke-width="2.338583" stroke-linecap="round" stroke-linejoin="round" fill="none" stroke="#88c8ff" d="M153.4956 178.441 156.9663 174.9703"/>
<path transform="matrix(.5454546,0,0,.5454546,0,0)" stroke-width="2.338583" stroke-linecap="round" stroke-linejoin="round" fill="none" stroke="#88c8ff" d="M153.4956 178.441 156.5414 181.4868"/>
<path transform="matrix(.5454546,0,0,.5454546,0,0)" stroke-width="2.338583" stroke-linecap="round" stroke-linejoin="round" fill="none" stroke="#88c8ff" d="M160.7733 177.3149H164.6447"/>
<path transform="matrix(.5454546,0,0,.5454546,0,0)" stroke-width="2.338583" stroke-linecap="round" stroke-linejoin="round" fill="none" stroke="#88c8ff" d="M164.6447 177.3149C164.6319 175.6768 163.9127 174.6606 162.4872 174.2662"/>
<path transform="matrix(.5454546,0,0,.5454546,0,0)" stroke-width="2.338583" stroke-linecap="round" stroke-linejoin="round" fill="none" stroke="#88c8ff" d="M162.4872 174.2662C159.9919 174.9258 159.0845 176.8588 159.7651 180.0652"/>
<path transform="matrix(.5454546,0,0,.5454546,0,0)" stroke-width="2.338583" stroke-linecap="round" stroke-linejoin="round" fill="none" stroke="#88c8ff" d="M159.7651 180.0652V180.0652"/>
<path transform="matrix(.5454546,0,0,.5454546,0,0)" stroke-width="2.338583" stroke-linecap="round" stroke-linejoin="round" fill="none" stroke="#88c8ff" d="M159.7651 180.0652C160.9574 181.2669 162.5267 181.6858 164.4731 181.3219"/>
<path transform="matrix(.5454546,0,0,.5454546,0,0)" stroke-width="2.338583" stroke-linecap="round" stroke-linejoin="round" fill="none" stroke="#88c8ff" d="M171.6522 170.6542V181.4364"/>
<path transform="matrix(.5454546,0,0,.5454546,0,0)" stroke-width="2.338583" stroke-linecap="round" stroke-linejoin="round" fill="none" stroke="#88c8ff" d="M172.4051 177.8008C174.3314 173.9533 175.8242 173.5477 176.8834 176.5841"/>
<path transform="matrix(.5454546,0,0,.5454546,0,0)" stroke-width="2.338583" stroke-linecap="round" stroke-linejoin="round" fill="none" stroke="#88c8ff" d="M176.8834 176.5841V181.4373"/>
<path transform="matrix(.5454546,0,0,.5454546,0,0)" stroke-width="2.338583" stroke-linecap="round" stroke-linejoin="round" fill="none" stroke="#88c8ff" d="M181.1434 177.8777H185.6573"/>
<path transform="matrix(.5454546,0,0,.5454546,0,0)" stroke-width="2.338583" stroke-linecap="round" stroke-linejoin="round" fill="none" stroke="#88c8ff" d="M185.6573 177.8777C185.7873 175.3693 184.7764 174.3384 182.6245 174.785"/>
<path transform="matrix(.5454546,0,0,.5454546,0,0)" stroke-width="2.338583" stroke-linecap="round" stroke-linejoin="round" fill="none" stroke="#88c8ff" d="M182.6245 174.785C180.4692 176.3572 179.7723 178.419 180.5336 180.9704"/>
<path transform="matrix(.5454546,0,0,.5454546,0,0)" stroke-width="2.338583" stroke-linecap="round" stroke-linejoin="round" fill="none" stroke="#88c8ff" d="M180.5336 180.9704C182.3902 181.8463 184.1343 182.012 185.7659 181.4675"/>
<path transform="matrix(.5454546,0,0,.5454546,0,0)" stroke-width="2.338583" stroke-linecap="round" stroke-linejoin="round" fill="none" stroke="#88c8ff" d="M193.332 175.3042C190.4322 174.4771 188.8619 175.6407 188.621 178.7951"/>
<path transform="matrix(.5454546,0,0,.5454546,0,0)" stroke-width="2.338583" stroke-linecap="round" stroke-linejoin="round" fill="none" stroke="#88c8ff" d="M188.621 178.7951C189.1608 181.6544 190.7462 181.9519 193.3773 179.6877"/>
<path transform="matrix(.5454546,0,0,.5454546,0,0)" stroke-width="2.338583" stroke-linecap="round" stroke-linejoin="round" fill="none" stroke="#88c8ff" d="M193.332 175.3042 194.0509 181.9399"/>
<path transform="matrix(.5454546,0,0,.5454546,0,0)" stroke-width="2.338583" stroke-linecap="round" stroke-linejoin="round" fill="none" stroke="#88c8ff" d="M198.0163 171.0744V181.91"/>
<path transform="matrix(.5454546,0,0,.5454546,0,0)" stroke-width="2.338583" stroke-linecap="round" stroke-linejoin="round" fill="none" stroke="#88c8ff" d="M202.1815 171.3518V180.8287"/>
<path transform="matrix(.5454546,0,0,.5454546,0,0)" stroke-width="2.338583" stroke-linecap="round" stroke-linejoin="round" fill="none" stroke="#88c8ff" d="M202.1815 180.8287C203.0098 182.1464 203.9372 182.236 204.9636 181.0974"/>
<path transform="matrix(.5454546,0,0,.5454546,0,0)" stroke-width="2.338583" stroke-linecap="round" stroke-linejoin="round" fill="none" stroke="#88c8ff" d="M201.0197 174.4143H204.7399"/>
<path transform="matrix(.5454546,0,0,.5454546,0,0)" stroke-width="2.338583" stroke-linecap="round" stroke-linejoin="round" fill="none" stroke="#88c8ff" d="M207.7011 171.1733V181.83"/>
<path transform="matrix(.5454546,0,0,.5454546,0,0)" stroke-width="2.338583" stroke-linecap="round" stroke-linejoin="round" fill="none" stroke="#88c8ff" d="M208.2975 176.9274C210.8477 174.0517 212.4963 173.9482 213.2434 176.617"/>
<path transform="matrix(.5454546,0,0,.5454546,0,0)" stroke-width="2.338583" stroke-linecap="round" stroke-linejoin="round" fill="none" stroke="#88c8ff" d="M213.2434 176.617 212.8664 181.7861"/>
<path transform="matrix(1,0,0,-1,0,587.52)" d="M22.90909 558.0655H432V34.42909H22.90909V558.0655Z" fill-opacity="0"/>
<path transform="matrix(.5454546,0,0,.5454546,0,0)" stroke-width="10" stroke-linecap="butt" stroke-miterlimit="10" stroke-linejoin="miter" fill="none" stroke="#000000" stroke-opacity="0" d="M37 49H797V1019H37V49Z"/>
<text fill-opacity="0" xml:space="preserve" transform="matrix(1.359357 0 -0 .5454546 101.8929 35.090028)" font-size="1.971539" font-family=".SFUI"><tspan y="0" x="0">r</tspan></text>
</svg>
